<svg id="mermaid-svg-1776429911236" width="100%" xmlns="http://www.w3.org/2000/svg" class="flowchart" style="max-width: 1153.4219970703125px;" viewBox="0 0 1153.4219970703125 2770.83349609375" role="graphics-document document" aria-roledescription="flowchart-v2"><style>#mermaid-svg-1776429911236{font-family:"trebuchet ms",verdana,arial,sans-serif;font-size:16px;fill:#000000;}@keyframes edge-animation-frame{from{stroke-dashoffset:0;}}@keyframes dash{to{stroke-dashoffset:0;}}#mermaid-svg-1776429911236 .edge-animation-slow{stroke-dasharray:9,5!important;stroke-dashoffset:900;animation:dash 50s linear infinite;stroke-linecap:round;}#mermaid-svg-1776429911236 .edge-animation-fast{stroke-dasharray:9,5!important;stroke-dashoffset:900;animation:dash 20s linear infinite;stroke-linecap:round;}#mermaid-svg-1776429911236 .error-icon{fill:#ffffff;}#mermaid-svg-1776429911236 .error-text{fill:#000000;stroke:#000000;}#mermaid-svg-1776429911236 .edge-thickness-normal{stroke-width:1px;}#mermaid-svg-1776429911236 .edge-thickness-thick{stroke-width:3.5px;}#mermaid-svg-1776429911236 .edge-pattern-solid{stroke-dasharray:0;}#mermaid-svg-1776429911236 .edge-thickness-invisible{stroke-width:0;fill:none;}#mermaid-svg-1776429911236 .edge-pattern-dashed{stroke-dasharray:3;}#mermaid-svg-1776429911236 .edge-pattern-dotted{stroke-dasharray:2;}#mermaid-svg-1776429911236 .marker{fill:#000000;stroke:#000000;}#mermaid-svg-1776429911236 .marker.cross{stroke:#000000;}#mermaid-svg-1776429911236 svg{font-family:"trebuchet ms",verdana,arial,sans-serif;font-size:16px;}#mermaid-svg-1776429911236 p{margin:0;}#mermaid-svg-1776429911236 .label{font-family:"trebuchet ms",verdana,arial,sans-serif;color:#000000;}#mermaid-svg-1776429911236 .cluster-label text{fill:#000000;}#mermaid-svg-1776429911236 .cluster-label span{color:#000000;}#mermaid-svg-1776429911236 .cluster-label span p{background-color:transparent;}#mermaid-svg-1776429911236 .label text,#mermaid-svg-1776429911236 span{fill:#000000;color:#000000;}#mermaid-svg-1776429911236 .node rect,#mermaid-svg-1776429911236 .node circle,#mermaid-svg-1776429911236 .node ellipse,#mermaid-svg-1776429911236 .node polygon,#mermaid-svg-1776429911236 .node path{fill:#ffffff;stroke:#000000;stroke-width:1px;}#mermaid-svg-1776429911236 .rough-node .label text,#mermaid-svg-1776429911236 .node .label text,#mermaid-svg-1776429911236 .image-shape .label,#mermaid-svg-1776429911236 .icon-shape .label{text-anchor:middle;}#mermaid-svg-1776429911236 .node .katex path{fill:#000;stroke:#000;stroke-width:1px;}#mermaid-svg-1776429911236 .rough-node .label,#mermaid-svg-1776429911236 .node .label,#mermaid-svg-1776429911236 .image-shape .label,#mermaid-svg-1776429911236 .icon-shape .label{text-align:center;}#mermaid-svg-1776429911236 .node.clickable{cursor:pointer;}#mermaid-svg-1776429911236 .root .anchor path{fill:#000000!important;stroke-width:0;stroke:#000000;}#mermaid-svg-1776429911236 .arrowheadPath{fill:#0b0b0b;}#mermaid-svg-1776429911236 .edgePath .path{stroke:#000000;stroke-width:2.0px;}#mermaid-svg-1776429911236 .flowchart-link{stroke:#000000;fill:none;}#mermaid-svg-1776429911236 .edgeLabel{background-color:#f4f4f5;text-align:center;}#mermaid-svg-1776429911236 .edgeLabel p{background-color:#f4f4f5;}#mermaid-svg-1776429911236 .edgeLabel rect{opacity:0.5;background-color:#f4f4f5;fill:#f4f4f5;}#mermaid-svg-1776429911236 .labelBkg{background-color:rgba(244, 244, 245, 0.5);}#mermaid-svg-1776429911236 .cluster rect{fill:#ffffff;stroke:hsl(0, 0%, 90%);stroke-width:1px;}#mermaid-svg-1776429911236 .cluster text{fill:#000000;}#mermaid-svg-1776429911236 .cluster span{color:#000000;}#mermaid-svg-1776429911236 div.mermaidTooltip{position:absolute;text-align:center;max-width:200px;padding:2px;font-family:"trebuchet ms",verdana,arial,sans-serif;font-size:12px;background:#ffffff;border:1px solid hsl(0, 0%, 90%);border-radius:2px;pointer-events:none;z-index:100;}#mermaid-svg-1776429911236 .flowchartTitleText{text-anchor:middle;font-size:18px;fill:#000000;}#mermaid-svg-1776429911236 rect.text{fill:none;stroke-width:0;}#mermaid-svg-1776429911236 .icon-shape,#mermaid-svg-1776429911236 .image-shape{background-color:#f4f4f5;text-align:center;}#mermaid-svg-1776429911236 .icon-shape p,#mermaid-svg-1776429911236 .image-shape p{background-color:#f4f4f5;padding:2px;}#mermaid-svg-1776429911236 .icon-shape rect,#mermaid-svg-1776429911236 .image-shape rect{opacity:0.5;background-color:#f4f4f5;fill:#f4f4f5;}#mermaid-svg-1776429911236 .label-icon{display:inline-block;height:1em;overflow:visible;vertical-align:-0.125em;}#mermaid-svg-1776429911236 .node .label-icon path{fill:currentColor;stroke:revert;stroke-width:revert;}#mermaid-svg-1776429911236 :root{--mermaid-font-family:"trebuchet ms",verdana,arial,sans-serif;}</style><g><marker id="mermaid-svg-1776429911236_flowchart-v2-pointEnd" class="marker flowchart-v2" viewBox="0 0 10 10" refX="5" refY="5" markerUnits="userSpaceOnUse" markerWidth="8" markerHeight="8" orient="auto"><path d="M 0 0 L 10 5 L 0 10 z" class="arrowMarkerPath" style="stroke-width: 1; stroke-dasharray: 1, 0;"></path></marker><marker id="mermaid-svg-1776429911236_flowchart-v2-pointStart" class="marker flowchart-v2" viewBox="0 0 10 10" refX="4.5" refY="5" markerUnits="userSpaceOnUse" markerWidth="8" markerHeight="8" orient="auto"><path d="M 0 5 L 10 10 L 10 0 z" class="arrowMarkerPath" style="stroke-width: 1; stroke-dasharray: 1, 0;"></path></marker><marker id="mermaid-svg-1776429911236_flowchart-v2-circleEnd" class="marker flowchart-v2" viewBox="0 0 10 10" refX="11" refY="5" markerUnits="userSpaceOnUse" markerWidth="11" markerHeight="11" orient="auto"><circle cx="5" cy="5" r="5" class="arrowMarkerPath" style="stroke-width: 1; stroke-dasharray: 1, 0;"></circle></marker><marker id="mermaid-svg-1776429911236_flowchart-v2-circleStart" class="marker flowchart-v2" viewBox="0 0 10 10" refX="-1" refY="5" markerUnits="userSpaceOnUse" markerWidth="11" markerHeight="11" orient="auto"><circle cx="5" cy="5" r="5" class="arrowMarkerPath" style="stroke-width: 1; stroke-dasharray: 1, 0;"></circle></marker><marker id="mermaid-svg-1776429911236_flowchart-v2-crossEnd" class="marker cross flowchart-v2" viewBox="0 0 11 11" refX="12" refY="5.2" markerUnits="userSpaceOnUse" markerWidth="11" markerHeight="11" orient="auto"><path d="M 1,1 l 9,9 M 10,1 l -9,9" class="arrowMarkerPath" style="stroke-width: 2; stroke-dasharray: 1, 0;"></path></marker><marker id="mermaid-svg-1776429911236_flowchart-v2-crossStart" class="marker cross flowchart-v2" viewBox="0 0 11 11" refX="-1" refY="5.2" markerUnits="userSpaceOnUse" markerWidth="11" markerHeight="11" orient="auto"><path d="M 1,1 l 9,9 M 10,1 l -9,9" class="arrowMarkerPath" style="stroke-width: 2; stroke-dasharray: 1, 0;"></path></marker><g class="root"><g class="clusters"></g><g class="edgePaths"><path d="M990.344,47.5L990.26,51.583C990.177,55.667,990.01,63.833,989.927,71.417C989.844,79,989.844,86,989.844,89.5L989.844,93" id="L_A_B_0" class="edge-thickness-normal edge-pattern-solid edge-thickness-normal edge-pattern-solid flowchart-link" style=";" data-edge="true" data-et="edge" data-id="L_A_B_0" data-points="W3sieCI6OTkwLjM0Mzc1LCJ5Ijo0Ny40OTk5OTk5OTk5OTk5N30seyJ4Ijo5ODkuODQzNzUsInkiOjcyfSx7IngiOjk4OS44NDM3NSwieSI6OTd9XQ==" marker-end="url(#mermaid-svg-1776429911236_flowchart-v2-pointEnd)"></path><path d="M930.831,175L921.499,181.167C912.168,187.333,893.506,199.667,886.359,213.661C879.212,227.655,883.581,243.311,885.765,251.138L887.95,258.966" id="L_B_C_0" class="edge-thickness-normal edge-pattern-solid edge-thickness-normal edge-pattern-solid flowchart-link" style=";" data-edge="true" data-et="edge" data-id="L_B_C_0" data-points="W3sieCI6OTMwLjgzMDU5MjEwNTI2MzEsInkiOjE3NX0seyJ4Ijo4NzQuODQzNzUsInkiOjIxMn0seyJ4Ijo4ODkuMDI0OTkyNTAzODY2OCwieSI6MjYyLjgxODc1NzQ5NjEzMzIzfV0=" marker-end="url(#mermaid-svg-1776429911236_flowchart-v2-pointEnd)"></path><path d="M936.473,282.629L949.798,270.858C963.123,259.086,989.772,235.543,1001.161,218.234C1012.549,200.925,1008.676,189.851,1006.739,184.313L1004.803,178.776" id="L_C_B_0" class="edge-thickness-normal edge-pattern-solid edge-thickness-normal edge-pattern-solid flowchart-link" style=";" data-edge="true" data-et="edge" data-id="L_C_B_0" data-points="W3sieCI6OTM2LjQ3MzA3NDA1NjM4MjYsInkiOjI4Mi42MjkzMjQwNTYzODI3fSx7IngiOjEwMTYuNDIxODc1LCJ5IjoyMTJ9LHsieCI6MTAwMy40ODI1MjQ2NzEwNTI2LCJ5IjoxNzV9XQ==" marker-end="url(#mermaid-svg-1776429911236_flowchart-v2-pointEnd)"></path><path d="M902.844,375.677L902.844,381.844C902.844,388.01,902.844,400.344,902.844,412.01C902.844,423.677,902.844,434.677,902.844,440.177L902.844,445.677" id="L_C_D_0" class="edge-thickness-normal edge-pattern-solid edge-thickness-normal edge-pattern-solid flowchart-link" style=";" data-edge="true" data-et="edge" data-id="L_C_D_0" data-points="W3sieCI6OTAyLjg0Mzc0OTk5OTk5OTksInkiOjM3NS42NzcwODU4NzY0NjQ1fSx7IngiOjkwMi44NDM3NSwieSI6NDEyLjY3NzA4NTg3NjQ2NDg0fSx7IngiOjkwMi44NDM3NSwieSI6NDQ5LjY3NzA4NTg3NjQ2NDg0fV0=" marker-end="url(#mermaid-svg-1776429911236_flowchart-v2-pointEnd)"></path><path d="M772.844,500.555L677.767,509.242C582.691,517.929,392.538,535.303,297.462,547.49C202.385,559.677,202.385,566.677,202.385,570.177L202.385,573.677" id="L_D_E_0" class="edge-thickness-normal edge-pattern-solid edge-thickness-normal edge-pattern-solid flowchart-link" style=";" data-edge="true" data-et="edge" data-id="L_D_E_0" data-points="W3sieCI6NzcyLjg0Mzc1LCJ5Ijo1MDAuNTU1MDIzMDI3NzMxNDd9LHsieCI6MjAyLjM4NTQyMTc1MjkyOTcsInkiOjU1Mi42NzcwODU4NzY0NjQ4fSx7IngiOjIwMi4zODU0MjE3NTI5Mjk3LCJ5Ijo1NzcuNjc3MDg1ODc2NDY0OH1d" marker-end="url(#mermaid-svg-1776429911236_flowchart-v2-pointEnd)"></path><path d="M202.385,679.677L202.385,683.844C202.385,688.01,202.385,696.344,202.385,704.01C202.385,711.677,202.385,718.677,202.385,722.177L202.385,725.677" id="L_E_F_0" class="edge-thickness-normal edge-pattern-solid edge-thickness-normal edge-pattern-solid flowchart-link" style=";" data-edge="true" data-et="edge" data-id="L_E_F_0" data-points="W3sieCI6MjAyLjM4NTQyMTc1MjkyOTcsInkiOjY3OS42NzcwODU4NzY0NjQ4fSx7IngiOjIwMi4zODU0MjE3NTI5Mjk3LCJ5Ijo3MDQuNjc3MDg1ODc2NDY0OH0seyJ4IjoyMDIuMzg1NDIxNzUyOTI5NywieSI6NzI5LjY3NzA4NTg3NjQ2NDh9XQ==" marker-end="url(#mermaid-svg-1776429911236_flowchart-v2-pointEnd)"></path><path d="M274.355,852.552L325.708,870.713C377.061,888.875,479.768,925.198,531.121,948.859C582.474,972.521,582.474,983.521,582.474,989.021L582.474,994.521" id="L_F_G_0" class="edge-thickness-normal edge-pattern-solid edge-thickness-normal edge-pattern-solid flowchart-link" style=";" data-edge="true" data-et="edge" data-id="L_F_G_0" data-points="W3sieCI6Mjc0LjM1NDY5MDI2NzE2MjEsInkiOjg1Mi41NTE1NjczNjIyMzI0fSx7IngiOjU4Mi40NzM5NjA4NzY0NjQ4LCJ5Ijo5NjEuNTIwODM1ODc2NDY0OH0seyJ4Ijo1ODIuNDczOTYwODc2NDY0OCwieSI6OTk4LjUyMDgzNTg3NjQ2NDh9XQ==" marker-end="url(#mermaid-svg-1776429911236_flowchart-v2-pointEnd)"></path><path d="M169.841,891.976L164.027,903.567C158.213,915.158,146.584,938.339,140.77,962.597C134.956,986.854,134.956,1012.188,134.956,1035.521C134.956,1058.854,134.956,1080.188,138.862,1094.562C142.769,1108.936,150.581,1116.352,154.488,1120.059L158.394,1123.767" id="L_F_H_0" class="edge-thickness-normal edge-pattern-solid edge-thickness-normal edge-pattern-solid flowchart-link" style=";" data-edge="true" data-et="edge" data-id="L_F_H_0" data-points="W3sieCI6MTY5Ljg0MTA3ODI0ODQ1OTM1LCJ5Ijo4OTEuOTc2NDkyMzcxOTk0NX0seyJ4IjoxMzQuOTU1NzM0MjUyOTI5NywieSI6OTYxLjUyMDgzNTg3NjQ2NDh9LHsieCI6MTM0Ljk1NTczNDI1MjkyOTcsInkiOjEwMzcuNTIwODM1ODc2NDY0OH0seyJ4IjoxMzQuOTU1NzM0MjUyOTI5NywieSI6MTEwMS41MjA4MzU4NzY0NjQ4fSx7IngiOjE2MS4yOTU0NTU5MzI2MTcyLCJ5IjoxMTI2LjUyMDgzNTg3NjQ2NDh9XQ==" marker-end="url(#mermaid-svg-1776429911236_flowchart-v2-pointEnd)"></path><path d="M582.474,1076.521L582.474,1080.688C582.474,1084.854,582.474,1093.188,541.45,1104.262C500.426,1115.336,418.378,1129.152,377.354,1136.059L336.33,1142.967" id="L_G_H_0" class="edge-thickness-normal edge-pattern-solid edge-thickness-normal edge-pattern-solid flowchart-link" style=";" data-edge="true" data-et="edge" data-id="L_G_H_0" data-points="W3sieCI6NTgyLjQ3Mzk2MDg3NjQ2NDgsInkiOjEwNzYuNTIwODM1ODc2NDY0OH0seyJ4Ijo1ODIuNDczOTYwODc2NDY0OCwieSI6MTEwMS41MjA4MzU4NzY0NjQ4fSx7IngiOjMzMi4zODU0MjE3NTI5Mjk3LCJ5IjoxMTQzLjYzMTE5OTI2OTIwMX1d" marker-end="url(#mermaid-svg-1776429911236_flowchart-v2-pointEnd)"></path><path d="M202.385,1204.521L202.385,1210.688C202.385,1216.854,202.385,1229.188,202.385,1240.854C202.385,1252.521,202.385,1263.521,202.385,1269.021L202.385,1274.521" id="L_H_I_0" class="edge-thickness-normal edge-pattern-solid edge-thickness-normal edge-pattern-solid flowchart-link" style=";" data-edge="true" data-et="edge" data-id="L_H_I_0" data-points="W3sieCI6MjAyLjM4NTQyMTc1MjkyOTcsInkiOjEyMDQuNTIwODM1ODc2NDY0OH0seyJ4IjoyMDIuMzg1NDIxNzUyOTI5NywieSI6MTI0MS41MjA4MzU4NzY0NjQ4fSx7IngiOjIwMi4zODU0MjE3NTI5Mjk3LCJ5IjoxMjc4LjUyMDgzNTg3NjQ2NDh9XQ==" marker-end="url(#mermaid-svg-1776429911236_flowchart-v2-pointEnd)"></path><path d="M270.851,1488.056L287.912,1505.633C304.974,1523.211,339.098,1558.366,356.16,1596.61C373.221,1634.854,373.221,1676.188,373.221,1717.521C373.221,1758.854,373.221,1800.188,373.221,1826.354C373.221,1852.521,373.221,1863.521,373.221,1869.021L373.221,1874.521" id="L_I_J_0" class="edge-thickness-normal edge-pattern-solid edge-thickness-normal edge-pattern-solid flowchart-link" style=";" data-edge="true" data-et="edge" data-id="L_I_J_0" data-points="W3sieCI6MjcwLjg1MDYzMTc5OTEwNjA1LCJ5IjoxNDg4LjA1NTYyNTgzMDI4ODR9LHsieCI6MzczLjIyMTM1OTI1MjkyOTcsInkiOjE1OTMuNTIwODM1ODc2NDY0OH0seyJ4IjozNzMuMjIxMzU5MjUyOTI5NywieSI6MTcxNy41MjA4MzU4NzY0NjQ4fSx7IngiOjM3My4yMjEzNTkyNTI5Mjk3LCJ5IjoxODQxLjUyMDgzNTg3NjQ2NDh9LHsieCI6MzczLjIyMTM1OTI1MjkyOTcsInkiOjE4NzguNTIwODM1ODc2NDY0OH1d" marker-end="url(#mermaid-svg-1776429911236_flowchart-v2-pointEnd)"></path><path d="M162.014,1516.149L156.736,1529.045C151.457,1541.94,140.901,1567.73,135.622,1586.126C130.344,1604.521,130.344,1615.521,130.344,1621.021L130.344,1626.521" id="L_I_K_0" class="edge-thickness-normal edge-pattern-solid edge-thickness-normal edge-pattern-solid flowchart-link" style=";" data-edge="true" data-et="edge" data-id="L_I_K_0" data-points="W3sieCI6MTYyLjAxNDAxMzM5MDcyNzY1LCJ5IjoxNTE2LjE0OTQyNzUxNDI2M30seyJ4IjoxMzAuMzQzNzU3NjI5Mzk0NTMsInkiOjE1OTMuNTIwODM1ODc2NDY0OH0seyJ4IjoxMzAuMzQzNzU3NjI5Mzk0NTMsInkiOjE2MzAuNTIwODM1ODc2NDY0OH1d" marker-end="url(#mermaid-svg-1776429911236_flowchart-v2-pointEnd)"></path><path d="M203.41,1731.454L299.606,1749.799C395.802,1768.143,588.194,1804.832,684.39,1828.676C780.586,1852.521,780.586,1863.521,780.586,1869.021L780.586,1874.521" id="L_K_L_0" class="edge-thickness-normal edge-pattern-solid edge-thickness-normal edge-pattern-solid flowchart-link" style=";" data-edge="true" data-et="edge" data-id="L_K_L_0" data-points="W3sieCI6MjAzLjQxMDEzMjg3OTMxNTg1LCJ5IjoxNzMxLjQ1NDQ2MDYyNjU0MzZ9LHsieCI6NzgwLjU4NTkzNzUsInkiOjE4NDEuNTIwODM1ODc2NDY0OH0seyJ4Ijo3ODAuNTg1OTM3NSwieSI6MTg3OC41MjA4MzU4NzY0NjQ4fV0=" marker-end="url(#mermaid-svg-1776429911236_flowchart-v2-pointEnd)"></path><path d="M130.344,1804.521L130.344,1810.688C130.344,1816.854,130.344,1829.188,130.344,1848.021C130.344,1866.854,130.344,1892.188,130.344,1915.521C130.344,1938.854,130.344,1960.188,130.344,1981.521C130.344,2002.854,130.344,2024.188,130.344,2045.521C130.344,2066.854,130.344,2088.188,130.344,2126.188C130.344,2164.188,130.344,2218.854,130.344,2275.521C130.344,2332.188,130.344,2390.854,215.505,2436.591C300.667,2482.328,470.989,2515.136,556.151,2531.54L641.312,2547.944" id="L_K_M_0" class="edge-thickness-normal edge-pattern-solid edge-thickness-normal edge-pattern-solid flowchart-link" style=";" data-edge="true" data-et="edge" data-id="L_K_M_0" data-points="W3sieCI6MTMwLjM0Mzc1NzYyOTM5NDUzLCJ5IjoxODA0LjUyMDgzNTg3NjQ2NDh9LHsieCI6MTMwLjM0Mzc1NzYyOTM5NDUzLCJ5IjoxODQxLjUyMDgzNTg3NjQ2NDh9LHsieCI6MTMwLjM0Mzc1NzYyOTM5NDUzLCJ5IjoxOTE3LjUyMDgzNTg3NjQ2NDh9LHsieCI6MTMwLjM0Mzc1NzYyOTM5NDUzLCJ5IjoxOTgxLjUyMDgzNTg3NjQ2NDh9LHsieCI6MTMwLjM0Mzc1NzYyOTM5NDUzLCJ5IjoyMDQ1LjUyMDgzNTg3NjQ2NDh9LHsieCI6MTMwLjM0Mzc1NzYyOTM5NDUzLCJ5IjoyMTA5LjUyMDgzNTg3NjQ2NX0seyJ4IjoxMzAuMzQzNzU3NjI5Mzk0NTMsInkiOjIyNzMuNTIwODM1ODc2NDY1fSx7IngiOjEzMC4zNDM3NTc2MjkzOTQ1MywieSI6MjQ0OS41MjA4MzU4NzY0NjV9LHsieCI6NjQ1LjIzOTk5MjU4MTE4NDUsInkiOjI1NDguNzAwMTE2NjcxNzQ1fV0=" marker-end="url(#mermaid-svg-1776429911236_flowchart-v2-pointEnd)"></path><path d="M373.221,1956.521L373.221,1960.688C373.221,1964.854,373.221,1973.188,383.22,1981.277C393.218,1989.367,413.214,1997.213,423.212,2001.137L433.21,2005.06" id="L_J_N_0" class="edge-thickness-normal edge-pattern-solid edge-thickness-normal edge-pattern-solid flowchart-link" style=";" data-edge="true" data-et="edge" data-id="L_J_N_0" data-points="W3sieCI6MzczLjIyMTM1OTI1MjkyOTcsInkiOjE5NTYuNTIwODM1ODc2NDY0OH0seyJ4IjozNzMuMjIxMzU5MjUyOTI5NywieSI6MTk4MS41MjA4MzU4NzY0NjQ4fSx7IngiOjQzNi45MzM5MjMzNjM2ODU2LCJ5IjoyMDA2LjUyMDgzNTg3NjQ2NDh9XQ==" marker-end="url(#mermaid-svg-1776429911236_flowchart-v2-pointEnd)"></path><path d="M780.586,1956.521L780.586,1960.688C780.586,1964.854,780.586,1973.188,765.328,1981.352C750.071,1989.516,719.556,1997.512,704.299,2001.509L689.041,2005.507" id="L_L_N_0" class="edge-thickness-normal edge-pattern-solid edge-thickness-normal edge-pattern-solid flowchart-link" style=";" data-edge="true" data-et="edge" data-id="L_L_N_0" data-points="W3sieCI6NzgwLjU4NTkzNzUsInkiOjE5NTYuNTIwODM1ODc2NDY0OH0seyJ4Ijo3ODAuNTg1OTM3NSwieSI6MTk4MS41MjA4MzU4NzY0NjQ4fSx7IngiOjY4NS4xNzE3MTMyMzI5OTQxLCJ5IjoyMDA2LjUyMDgzNTg3NjQ2NDh9XQ==" marker-end="url(#mermaid-svg-1776429911236_flowchart-v2-pointEnd)"></path><path d="M536.326,2084.521L536.326,2088.688C536.326,2092.854,536.326,2101.188,547.397,2119.266C558.468,2137.344,580.61,2165.167,591.681,2179.078L602.752,2192.989" id="L_N_O_0" class="edge-thickness-normal edge-pattern-solid edge-thickness-normal edge-pattern-solid flowchart-link" style=";" data-edge="true" data-et="edge" data-id="L_N_O_0" data-points="W3sieCI6NTM2LjMyNTUyMzM3NjQ2NDgsInkiOjIwODQuNTIwODM1ODc2NDY1fSx7IngiOjUzNi4zMjU1MjMzNzY0NjQ4LCJ5IjoyMTA5LjUyMDgzNTg3NjQ2NX0seyJ4Ijo2MDUuMjQyODE0MjQ3MzMzMywieSI6MjE5Ni4xMTkxNzAwMDU1OTY1fV0=" marker-end="url(#mermaid-svg-1776429911236_flowchart-v2-pointEnd)"></path><path d="M761.455,2229.134L803.949,2209.199C846.444,2189.263,931.433,2149.392,973.927,2118.79C1016.422,2088.188,1016.422,2066.854,1016.422,2045.521C1016.422,2024.188,1016.422,2002.854,1016.422,1981.521C1016.422,1960.188,1016.422,1938.854,1016.422,1915.521C1016.422,1892.188,1016.422,1866.854,1016.422,1833.521C1016.422,1800.188,1016.422,1758.854,1016.422,1717.521C1016.422,1676.188,1016.422,1634.854,1016.422,1584.854C1016.422,1534.854,1016.422,1476.188,1016.422,1417.521C1016.422,1358.854,1016.422,1300.188,1016.422,1258.188C1016.422,1216.188,1016.422,1190.854,1016.422,1167.521C1016.422,1144.188,1016.422,1122.854,1016.422,1101.521C1016.422,1080.188,1016.422,1058.854,1016.422,1035.521C1016.422,1012.188,1016.422,986.854,1016.422,951.784C1016.422,916.714,1016.422,871.906,1016.422,829.099C1016.422,786.292,1016.422,745.484,1016.422,712.414C1016.422,679.344,1016.422,654.01,1016.422,628.677C1016.422,603.344,1016.422,578.01,1009.608,561.504C1002.795,544.998,989.167,537.32,982.354,533.48L975.54,529.641" id="L_O_D_0" class="edge-thickness-normal edge-pattern-solid edge-thickness-normal edge-pattern-solid flowchart-link" style=";" data-edge="true" data-et="edge" data-id="L_O_D_0" data-points="W3sieCI6NzYxLjQ1NDc0NzUyNzkxODYsInkiOjIyMjkuMTM0NDM1MDI3OTE4N30seyJ4IjoxMDE2LjQyMTg3NSwieSI6MjEwOS41MjA4MzU4NzY0NjV9LHsieCI6MTAxNi40MjE4NzUsInkiOjIwNDUuNTIwODM1ODc2NDY0OH0seyJ4IjoxMDE2LjQyMTg3NSwieSI6MTk4MS41MjA4MzU4NzY0NjQ4fSx7IngiOjEwMTYuNDIxODc1LCJ5IjoxOTE3LjUyMDgzNTg3NjQ2NDh9LHsieCI6MTAxNi40MjE4NzUsInkiOjE4NDEuNTIwODM1ODc2NDY0OH0seyJ4IjoxMDE2LjQyMTg3NSwieSI6MTcxNy41MjA4MzU4NzY0NjQ4fSx7IngiOjEwMTYuNDIxODc1LCJ5IjoxNTkzLjUyMDgzNTg3NjQ2NDh9LHsieCI6MTAxNi40MjE4NzUsInkiOjE0MTcuNTIwODM1ODc2NDY0OH0seyJ4IjoxMDE2LjQyMTg3NSwieSI6MTI0MS41MjA4MzU4NzY0NjQ4fSx7IngiOjEwMTYuNDIxODc1LCJ5IjoxMTY1LjUyMDgzNTg3NjQ2NDh9LHsieCI6MTAxNi40MjE4NzUsInkiOjExMDEuNTIwODM1ODc2NDY0OH0seyJ4IjoxMDE2LjQyMTg3NSwieSI6MTAzNy41MjA4MzU4NzY0NjQ4fSx7IngiOjEwMTYuNDIxODc1LCJ5Ijo5NjEuNTIwODM1ODc2NDY0OH0seyJ4IjoxMDE2LjQyMTg3NSwieSI6ODI3LjA5ODk2MDg3NjQ2NDh9LHsieCI6MTAxNi40MjE4NzUsInkiOjcwNC42NzcwODU4NzY0NjQ4fSx7IngiOjEwMTYuNDIxODc1LCJ5Ijo2MjguNjc3MDg1ODc2NDY0OH0seyJ4IjoxMDE2LjQyMTg3NSwieSI6NTUyLjY3NzA4NTg3NjQ2NDh9LHsieCI6OTcyLjA1NTQxOTkyMTg3NSwieSI6NTI3LjY3NzA4NTg3NjQ2NDh9XQ==" marker-end="url(#mermaid-svg-1776429911236_flowchart-v2-pointEnd)"></path><path d="M666.841,2412.521L666.841,2418.688C666.841,2424.854,666.841,2437.188,670.07,2452.2C673.299,2467.212,679.758,2484.904,682.987,2493.749L686.216,2502.595" id="L_O_M_0" class="edge-thickness-normal edge-pattern-solid edge-thickness-normal edge-pattern-solid flowchart-link" style=";" data-edge="true" data-et="edge" data-id="L_O_M_0" data-points="W3sieCI6NjY2Ljg0MTE0ODM3NjQ2NDgsInkiOjI0MTIuNTIwODM1ODc2NDY1fSx7IngiOjY2Ni44NDExNDgzNzY0NjQ4LCJ5IjoyNDQ5LjUyMDgzNTg3NjQ2NX0seyJ4Ijo2ODcuNTg3NzY0NjQ5MjQ4MiwieSI6MjUwNi4zNTIzNDQ2MDM2ODE2fV0=" marker-end="url(#mermaid-svg-1776429911236_flowchart-v2-pointEnd)"></path><path d="M707.419,2634.833L707.419,2641C707.419,2647.167,707.419,2659.5,716.588,2671.477C725.757,2683.453,744.094,2695.073,753.262,2700.882L762.431,2706.692" id="L_M_P_0" class="edge-thickness-normal edge-pattern-solid edge-thickness-normal edge-pattern-solid flowchart-link" style=";" data-edge="true" data-et="edge" data-id="L_M_P_0" data-points="W3sieCI6NzA3LjQxOTI3MzM3NjQ2NDgsInkiOjI2MzQuODMzMzM1ODc2NDY1fSx7IngiOjcwNy40MTkyNzMzNzY0NjQ4LCJ5IjoyNjcxLjgzMzMzNTg3NjQ2NX0seyJ4Ijo3NjUuODA5ODk4Mzc2NDY0OCwieSI6MjcwOC44MzMzMzU4NzY0NjV9XQ==" marker-end="url(#mermaid-svg-1776429911236_flowchart-v2-pointEnd)"></path><path d="M914.701,2715.65L953.154,2708.347C991.608,2701.044,1068.515,2686.439,1106.968,2660.61C1145.422,2634.781,1145.422,2597.729,1145.422,2560.677C1145.422,2523.625,1145.422,2486.573,1145.422,2438.714C1145.422,2390.854,1145.422,2332.188,1145.422,2275.521C1145.422,2218.854,1145.422,2164.188,1145.422,2126.188C1145.422,2088.188,1145.422,2066.854,1145.422,2045.521C1145.422,2024.188,1145.422,2002.854,1145.422,1981.521C1145.422,1960.188,1145.422,1938.854,1145.422,1915.521C1145.422,1892.188,1145.422,1866.854,1145.422,1833.521C1145.422,1800.188,1145.422,1758.854,1145.422,1717.521C1145.422,1676.188,1145.422,1634.854,1145.422,1584.854C1145.422,1534.854,1145.422,1476.188,1145.422,1417.521C1145.422,1358.854,1145.422,1300.188,1145.422,1258.188C1145.422,1216.188,1145.422,1190.854,1145.422,1167.521C1145.422,1144.188,1145.422,1122.854,1145.422,1101.521C1145.422,1080.188,1145.422,1058.854,1145.422,1035.521C1145.422,1012.188,1145.422,986.854,1145.422,951.784C1145.422,916.714,1145.422,871.906,1145.422,829.099C1145.422,786.292,1145.422,745.484,1145.422,712.414C1145.422,679.344,1145.422,654.01,1145.422,628.677C1145.422,603.344,1145.422,578.01,1127.303,560.564C1109.185,543.117,1072.948,533.556,1054.83,528.776L1036.711,523.996" id="L_P_D_0" class="edge-thickness-normal edge-pattern-solid edge-thickness-normal edge-pattern-solid flowchart-link" style=";" data-edge="true" data-et="edge" data-id="L_P_D_0" data-points="W3sieCI6OTE0LjcwMDUyMzM3NjQ2NDgsInkiOjI3MTUuNjQ5NTE1NDMzNDQ1fSx7IngiOjExNDUuNDIxODc1LCJ5IjoyNjcxLjgzMzMzNTg3NjQ2NX0seyJ4IjoxMTQ1LjQyMTg3NSwieSI6MjU2MC42NzcwODU4NzY0NjV9LHsieCI6MTE0NS40MjE4NzUsInkiOjI0NDkuNTIwODM1ODc2NDY1fSx7IngiOjExNDUuNDIxODc1LCJ5IjoyMjczLjUyMDgzNTg3NjQ2NX0seyJ4IjoxMTQ1LjQyMTg3NSwieSI6MjEwOS41MjA4MzU4NzY0NjV9LHsieCI6MTE0NS40MjE4NzUsInkiOjIwNDUuNTIwODM1ODc2NDY0OH0seyJ4IjoxMTQ1LjQyMTg3NSwieSI6MTk4MS41MjA4MzU4NzY0NjQ4fSx7IngiOjExNDUuNDIxODc1LCJ5IjoxOTE3LjUyMDgzNTg3NjQ2NDh9LHsieCI6MTE0NS40MjE4NzUsInkiOjE4NDEuNTIwODM1ODc2NDY0OH0seyJ4IjoxMTQ1LjQyMTg3NSwieSI6MTcxNy41MjA4MzU4NzY0NjQ4fSx7IngiOjExNDUuNDIxODc1LCJ5IjoxNTkzLjUyMDgzNTg3NjQ2NDh9LHsieCI6MTE0NS40MjE4NzUsInkiOjE0MTcuNTIwODM1ODc2NDY0OH0seyJ4IjoxMTQ1LjQyMTg3NSwieSI6MTI0MS41MjA4MzU4NzY0NjQ4fSx7IngiOjExNDUuNDIxODc1LCJ5IjoxMTY1LjUyMDgzNTg3NjQ2NDh9LHsieCI6MTE0NS40MjE4NzUsInkiOjExMDEuNTIwODM1ODc2NDY0OH0seyJ4IjoxMTQ1LjQyMTg3NSwieSI6MTAzNy41MjA4MzU4NzY0NjQ4fSx7IngiOjExNDUuNDIxODc1LCJ5Ijo5NjEuNTIwODM1ODc2NDY0OH0seyJ4IjoxMTQ1LjQyMTg3NSwieSI6ODI3LjA5ODk2MDg3NjQ2NDh9LHsieCI6MTE0NS40MjE4NzUsInkiOjcwNC42NzcwODU4NzY0NjQ4fSx7IngiOjExNDUuNDIxODc1LCJ5Ijo2MjguNjc3MDg1ODc2NDY0OH0seyJ4IjoxMTQ1LjQyMTg3NSwieSI6NTUyLjY3NzA4NTg3NjQ2NDh9LHsieCI6MTAzMi44NDM3NSwieSI6NTIyLjk3NTMxNDUzOTkxMDl9XQ==" marker-end="url(#mermaid-svg-1776429911236_flowchart-v2-pointEnd)"></path><path d="M765.759,2544.861L824.369,2528.971C882.98,2513.081,1000.201,2481.301,1058.811,2436.077C1117.422,2390.854,1117.422,2332.188,1117.422,2275.521C1117.422,2218.854,1117.422,2164.188,1117.422,2126.188C1117.422,2088.188,1117.422,2066.854,1117.422,2045.521C1117.422,2024.188,1117.422,2002.854,1117.422,1981.521C1117.422,1960.188,1117.422,1938.854,1117.422,1915.521C1117.422,1892.188,1117.422,1866.854,1117.422,1833.521C1117.422,1800.188,1117.422,1758.854,1117.422,1717.521C1117.422,1676.188,1117.422,1634.854,1117.422,1584.854C1117.422,1534.854,1117.422,1476.188,1117.422,1417.521C1117.422,1358.854,1117.422,1300.188,1117.422,1258.188C1117.422,1216.188,1117.422,1190.854,1117.422,1167.521C1117.422,1144.188,1117.422,1122.854,1117.422,1101.521C1117.422,1080.188,1117.422,1058.854,1117.422,1035.521C1117.422,1012.188,1117.422,986.854,1117.422,951.784C1117.422,916.714,1117.422,871.906,1117.422,829.099C1117.422,786.292,1117.422,745.484,1117.422,712.414C1117.422,679.344,1117.422,654.01,1117.422,628.677C1117.422,603.344,1117.422,578.01,1117.422,554.677C1117.422,531.344,1117.422,510.01,1117.422,486.677C1117.422,463.344,1117.422,438.01,1117.422,408.621C1117.422,379.231,1117.422,345.785,1117.422,312.339C1117.422,278.892,1117.422,245.446,1107.643,222.898C1097.864,200.349,1078.306,188.698,1068.527,182.873L1058.748,177.047" id="L_M_B_0" class="edge-thickness-normal edge-pattern-solid edge-thickness-normal edge-pattern-solid flowchart-link" style=";" data-edge="true" data-et="edge" data-id="L_M_B_0" data-points="W3sieCI6NzY1Ljc1ODk4MTc2Mjc0NDMsInkiOjI1NDQuODYwNTQ0MjYyNzQ0fSx7IngiOjExMTcuNDIxODc1LCJ5IjoyNDQ5LjUyMDgzNTg3NjQ2NX0seyJ4IjoxMTE3LjQyMTg3NSwieSI6MjI3My41MjA4MzU4NzY0NjV9LHsieCI6MTExNy40MjE4NzUsInkiOjIxMDkuNTIwODM1ODc2NDY1fSx7IngiOjExMTcuNDIxODc1LCJ5IjoyMDQ1LjUyMDgzNTg3NjQ2NDh9LHsieCI6MTExNy40MjE4NzUsInkiOjE5ODEuNTIwODM1ODc2NDY0OH0seyJ4IjoxMTE3LjQyMTg3NSwieSI6MTkxNy41MjA4MzU4NzY0NjQ4fSx7IngiOjExMTcuNDIxODc1LCJ5IjoxODQxLjUyMDgzNTg3NjQ2NDh9LHsieCI6MTExNy40MjE4NzUsInkiOjE3MTcuNTIwODM1ODc2NDY0OH0seyJ4IjoxMTE3LjQyMTg3NSwieSI6MTU5My41MjA4MzU4NzY0NjQ4fSx7IngiOjExMTcuNDIxODc1LCJ5IjoxNDE3LjUyMDgzNTg3NjQ2NDh9LHsieCI6MTExNy40MjE4NzUsInkiOjEyNDEuNTIwODM1ODc2NDY0OH0seyJ4IjoxMTE3LjQyMTg3NSwieSI6MTE2NS41MjA4MzU4NzY0NjQ4fSx7IngiOjExMTcuNDIxODc1LCJ5IjoxMTAxLjUyMDgzNTg3NjQ2NDh9LHsieCI6MTExNy40MjE4NzUsInkiOjEwMzcuNTIwODM1ODc2NDY0OH0seyJ4IjoxMTE3LjQyMTg3NSwieSI6OTYxLjUyMDgzNTg3NjQ2NDh9LHsieCI6MTExNy40MjE4NzUsInkiOjgyNy4wOTg5NjA4NzY0NjQ4fSx7IngiOjExMTcuNDIxODc1LCJ5Ijo3MDQuNjc3MDg1ODc2NDY0OH0seyJ4IjoxMTE3LjQyMTg3NSwieSI6NjI4LjY3NzA4NTg3NjQ2NDh9LHsieCI6MTExNy40MjE4NzUsInkiOjU1Mi42NzcwODU4NzY0NjQ4fSx7IngiOjExMTcuNDIxODc1LCJ5Ijo0ODguNjc3MDg1ODc2NDY0ODR9LHsieCI6MTExNy40MjE4NzUsInkiOjQxMi42NzcwODU4NzY0NjQ4NH0seyJ4IjoxMTE3LjQyMTg3NSwieSI6MzEyLjMzODU0MjkzODIzMjR9LHsieCI6MTExNy40MjE4NzUsInkiOjIxMn0seyJ4IjoxMDU1LjMxMTQ3MjAzOTQ3MzgsInkiOjE3NX1d" marker-end="url(#mermaid-svg-1776429911236_flowchart-v2-pointEnd)"></path></g><g class="edgeLabels"><g class="edgeLabel"><g class="label" data-id="L_A_B_0" transform="translate(0, 0)"><foreignObject width="0" height="0"><div xmlns="http://www.w3.org/1999/xhtml" class="labelBkg" style="display: table-cell; white-space: nowrap; line-height: 1.5; max-width: 200px; text-align: center;"><span class="edgeLabel"></span></div></foreignObject></g></g><g class="edgeLabel"><g class="label" data-id="L_B_C_0" transform="translate(0, 0)"><foreignObject width="0" height="0"><div xmlns="http://www.w3.org/1999/xhtml" class="labelBkg" style="display: table-cell; white-space: nowrap; line-height: 1.5; max-width: 200px; text-align: center;"><span class="edgeLabel"></span></div></foreignObject></g></g><g class="edgeLabel" transform="translate(991.13541, 234.33887)"><g class="label" data-id="L_C_B_0" transform="translate(-8, -12)"><foreignObject width="16" height="24"><div xmlns="http://www.w3.org/1999/xhtml" class="labelBkg" style="display: table-cell; white-space: nowrap; line-height: 1.5; max-width: 200px; text-align: center;"><span class="edgeLabel"><p>否</p></span></div></foreignObject></g></g><g class="edgeLabel" transform="translate(902.84375, 412.67708587646484)"><g class="label" data-id="L_C_D_0" transform="translate(-8, -12)"><foreignObject width="16" height="24"><div xmlns="http://www.w3.org/1999/xhtml" class="labelBkg" style="display: table-cell; white-space: nowrap; line-height: 1.5; max-width: 200px; text-align: center;"><span class="edgeLabel"><p>是</p></span></div></foreignObject></g></g><g class="edgeLabel"><g class="label" data-id="L_D_E_0" transform="translate(0, 0)"><foreignObject width="0" height="0"><div xmlns="http://www.w3.org/1999/xhtml" class="labelBkg" style="display: table-cell; white-space: nowrap; line-height: 1.5; max-width: 200px; text-align: center;"><span class="edgeLabel"></span></div></foreignObject></g></g><g class="edgeLabel"><g class="label" data-id="L_E_F_0" transform="translate(0, 0)"><foreignObject width="0" height="0"><div xmlns="http://www.w3.org/1999/xhtml" class="labelBkg" style="display: table-cell; white-space: nowrap; line-height: 1.5; max-width: 200px; text-align: center;"><span class="edgeLabel"></span></div></foreignObject></g></g><g class="edgeLabel" transform="translate(582.4739608764648, 961.5208358764648)"><g class="label" data-id="L_F_G_0" transform="translate(-8, -12)"><foreignObject width="16" height="24"><div xmlns="http://www.w3.org/1999/xhtml" class="labelBkg" style="display: table-cell; white-space: nowrap; line-height: 1.5; max-width: 200px; text-align: center;"><span class="edgeLabel"><p>是</p></span></div></foreignObject></g></g><g class="edgeLabel" transform="translate(134.9557342529297, 1037.5208358764648)"><g class="label" data-id="L_F_H_0" transform="translate(-8, -12)"><foreignObject width="16" height="24"><div xmlns="http://www.w3.org/1999/xhtml" class="labelBkg" style="display: table-cell; white-space: nowrap; line-height: 1.5; max-width: 200px; text-align: center;"><span class="edgeLabel"><p>否</p></span></div></foreignObject></g></g><g class="edgeLabel"><g class="label" data-id="L_G_H_0" transform="translate(0, 0)"><foreignObject width="0" height="0"><div xmlns="http://www.w3.org/1999/xhtml" class="labelBkg" style="display: table-cell; white-space: nowrap; line-height: 1.5; max-width: 200px; text-align: center;"><span class="edgeLabel"></span></div></foreignObject></g></g><g class="edgeLabel"><g class="label" data-id="L_H_I_0" transform="translate(0, 0)"><foreignObject width="0" height="0"><div xmlns="http://www.w3.org/1999/xhtml" class="labelBkg" style="display: table-cell; white-space: nowrap; line-height: 1.5; max-width: 200px; text-align: center;"><span class="edgeLabel"></span></div></foreignObject></g></g><g class="edgeLabel" transform="translate(373.2213592529297, 1717.5208358764648)"><g class="label" data-id="L_I_J_0" transform="translate(-8, -12)"><foreignObject width="16" height="24"><div xmlns="http://www.w3.org/1999/xhtml" class="labelBkg" style="display: table-cell; white-space: nowrap; line-height: 1.5; max-width: 200px; text-align: center;"><span class="edgeLabel"><p>是</p></span></div></foreignObject></g></g><g class="edgeLabel" transform="translate(130.34375762939453, 1593.5208358764648)"><g class="label" data-id="L_I_K_0" transform="translate(-8, -12)"><foreignObject width="16" height="24"><div xmlns="http://www.w3.org/1999/xhtml" class="labelBkg" style="display: table-cell; white-space: nowrap; line-height: 1.5; max-width: 200px; text-align: center;"><span class="edgeLabel"><p>否</p></span></div></foreignObject></g></g><g class="edgeLabel" transform="translate(780.5859375, 1841.5208358764648)"><g class="label" data-id="L_K_L_0" transform="translate(-8, -12)"><foreignObject width="16" height="24"><div xmlns="http://www.w3.org/1999/xhtml" class="labelBkg" style="display: table-cell; white-space: nowrap; line-height: 1.5; max-width: 200px; text-align: center;"><span class="edgeLabel"><p>是</p></span></div></foreignObject></g></g><g class="edgeLabel" transform="translate(130.34375762939453, 2045.5208358764648)"><g class="label" data-id="L_K_M_0" transform="translate(-8, -12)"><foreignObject width="16" height="24"><div xmlns="http://www.w3.org/1999/xhtml" class="labelBkg" style="display: table-cell; white-space: nowrap; line-height: 1.5; max-width: 200px; text-align: center;"><span class="edgeLabel"><p>否</p></span></div></foreignObject></g></g><g class="edgeLabel"><g class="label" data-id="L_J_N_0" transform="translate(0, 0)"><foreignObject width="0" height="0"><div xmlns="http://www.w3.org/1999/xhtml" class="labelBkg" style="display: table-cell; white-space: nowrap; line-height: 1.5; max-width: 200px; text-align: center;"><span class="edgeLabel"></span></div></foreignObject></g></g><g class="edgeLabel"><g class="label" data-id="L_L_N_0" transform="translate(0, 0)"><foreignObject width="0" height="0"><div xmlns="http://www.w3.org/1999/xhtml" class="labelBkg" style="display: table-cell; white-space: nowrap; line-height: 1.5; max-width: 200px; text-align: center;"><span class="edgeLabel"></span></div></foreignObject></g></g><g class="edgeLabel"><g class="label" data-id="L_N_O_0" transform="translate(0, 0)"><foreignObject width="0" height="0"><div xmlns="http://www.w3.org/1999/xhtml" class="labelBkg" style="display: table-cell; white-space: nowrap; line-height: 1.5; max-width: 200px; text-align: center;"><span class="edgeLabel"></span></div></foreignObject></g></g><g class="edgeLabel" transform="translate(1016.421875, 1241.5208358764648)"><g class="label" data-id="L_O_D_0" transform="translate(-8, -12)"><foreignObject width="16" height="24"><div xmlns="http://www.w3.org/1999/xhtml" class="labelBkg" style="display: table-cell; white-space: nowrap; line-height: 1.5; max-width: 200px; text-align: center;"><span class="edgeLabel"><p>是</p></span></div></foreignObject></g></g><g class="edgeLabel" transform="translate(666.8411483764648, 2449.520835876465)"><g class="label" data-id="L_O_M_0" transform="translate(-8, -12)"><foreignObject width="16" height="24"><div xmlns="http://www.w3.org/1999/xhtml" class="labelBkg" style="display: table-cell; white-space: nowrap; line-height: 1.5; max-width: 200px; text-align: center;"><span class="edgeLabel"><p>否</p></span></div></foreignObject></g></g><g class="edgeLabel" transform="translate(707.4192733764648, 2671.833335876465)"><g class="label" data-id="L_M_P_0" transform="translate(-8, -12)"><foreignObject width="16" height="24"><div xmlns="http://www.w3.org/1999/xhtml" class="labelBkg" style="display: table-cell; white-space: nowrap; line-height: 1.5; max-width: 200px; text-align: center;"><span class="edgeLabel"><p>是</p></span></div></foreignObject></g></g><g class="edgeLabel"><g class="label" data-id="L_P_D_0" transform="translate(0, 0)"><foreignObject width="0" height="0"><div xmlns="http://www.w3.org/1999/xhtml" class="labelBkg" style="display: table-cell; white-space: nowrap; line-height: 1.5; max-width: 200px; text-align: center;"><span class="edgeLabel"></span></div></foreignObject></g></g><g class="edgeLabel" transform="translate(1117.421875, 1165.5208358764648)"><g class="label" data-id="L_M_B_0" transform="translate(-8, -12)"><foreignObject width="16" height="24"><div xmlns="http://www.w3.org/1999/xhtml" class="labelBkg" style="display: table-cell; white-space: nowrap; line-height: 1.5; max-width: 200px; text-align: center;"><span class="edgeLabel"><p>否</p></span></div></foreignObject></g></g></g><g class="nodes"><g class="node default" id="flowchart-A-0" transform="translate(989.84375, 27.5)"><g class="basic label-container outer-path"><path d="M-36.645835876464844 -19.5 C-19.592855299901263 -19.5, -2.5398747233376824 -19.5, 36.645835876464844 -19.5 C36.645835876464844 -19.5, 36.645835876464844 -19.5, 36.645835876464844 -19.5 C37.0252340661984 -19.48783343850902, 37.404632255931965 -19.475666877018043, 37.89520516608874 -19.45993515863156 C38.18605146883896 -19.431877565599102, 38.47689777158918 -19.403819972566644, 39.13944052931271 -19.3399052695533 C39.46753019015257 -19.28686227756203, 39.79561985099244 -19.23381928557076, 40.3734291361416 -19.140403561325776 C40.82104170001181 -19.038238914567355, 41.26865426388202 -18.936074267808937, 41.592100262700235 -18.862249829261074 C41.86389405316587 -18.781582858925592, 42.13568784363151 -18.700915888590114, 42.79044612792545 -18.50658706670804 C43.04694813633734 -18.41219195653389, 43.303450144749235 -18.317796846359737, 43.96354247161264 -18.074876768247425 C44.36931037638667 -17.89525535348119, 44.7750782811607 -17.71563393871496, 45.106568789257224 -17.568892924097174 C45.39279891273281 -17.41956685201911, 45.679029036208384 -17.270240779941044, 46.21482814054163 -16.990714730406097 C46.49098429333054 -16.823307247711767, 46.767140446119456 -16.655899765017434, 47.283766450070544 -16.342718045390892 C47.633912623313755 -16.098471232519973, 47.984058796556965 -15.854224419649052, 48.308991221043556 -15.627565626425154 C48.61450902231351 -15.383923310082498, 48.92002682358347 -15.140280993739843, 49.28628958496671 -14.848196188198123 C49.510842918008535 -14.644262792485154, 49.73539625105036 -14.440329396772187, 50.21164561323283 -14.007812326905688 C50.42758016815195 -13.784842170395033, 50.643514723071064 -13.56187201388438, 51.08125681943349 -13.10986736009568 C51.31079507006527 -12.840238669807134, 51.540333320697044 -12.570609979518586, 51.891549784591426 -12.158051136245305 C52.18835007609893 -11.760365784688052, 52.48515036760643 -11.3626804331308, 52.63919484110548 -11.156274872382312 C52.90732693541599 -10.744351971972605, 53.17545902972649 -10.332429071562899, 53.32111975506909 -10.108655082055241 C53.54215235084642 -9.716189326275257, 53.763184946623745 -9.323723570495273, 53.93452235073835 -9.019496659696287 C54.145315982188045 -8.581779173729803, 54.35610961363774 -8.144061687763317, 54.476882025273184 -7.893275190886684 C54.57541624466241 -7.649893763965778, 54.67395046405162 -7.406512337044872, 54.94597010643517 -6.734618561215508 C55.024890426317654 -6.496923131974819, 55.10381074620014 -6.259227702734131, 55.339859010679724 -5.548287939305138 C55.418366957409695 -5.248903112864419, 55.496874904139666 -4.949518286423699, 55.656930164010404 -4.339158212148133 C55.706426783618085 -4.085003531576936, 55.75592340322577 -3.8308488510057375, 55.89588065304662 -3.1121979531509023 C55.93590459592753 -2.801780155788025, 55.975928538808446 -2.4913623584251483, 56.05572857897421 -1.872449005199798 C56.08417960112915 -1.4293013698848693, 56.11263062328409 -0.9861537345699407, 56.13581709237826 -0.6250057626472757 C56.13581709237826 -0.18427286686734212, 56.13581709237826 0.25646002891259145, 56.13581709237826 0.625005762647271 C56.11150667080951 1.003660201599613, 56.08719624924076 1.382314640551955, 56.05572857897421 1.8724490051997846 C56.014362559208394 2.193275685858923, 55.972996539442576 2.5141023665180615, 55.89588065304662 3.1121979531508885 C55.80120095067398 3.5983582142722024, 55.70652124830134 4.084518475393516, 55.656930164010404 4.339158212148129 C55.53506431691735 4.803885504106185, 55.413198469824295 5.268612796064243, 55.33985901067973 5.548287939305125 C55.23380196519488 5.867714862410082, 55.127744919710025 6.187141785515038, 54.94597010643517 6.734618561215495 C54.78837697245363 7.123876649005882, 54.63078383847208 7.513134736796269, 54.476882025273184 7.893275190886679 C54.285863756948046 8.289928712200027, 54.09484548862291 8.686582233513375, 53.93452235073835 9.019496659696284 C53.74686150232514 9.352707498775414, 53.55920065391194 9.685918337854545, 53.32111975506909 10.108655082055236 C53.08544004605104 10.470722403970107, 52.849760337033 10.832789725884979, 52.639194841105486 11.156274872382301 C52.3542322951181 11.538098723383394, 52.06926974913072 11.919922574384488, 51.891549784591426 12.158051136245302 C51.62765940651387 12.468031790123094, 51.36376902843631 12.778012444000886, 51.081256819433506 13.10986736009567 C50.89291947670884 13.304341129242294, 50.70458213398417 13.49881489838892, 50.21164561323283 14.007812326905684 C49.959741664192016 14.23658482841129, 49.70783771515121 14.465357329916898, 49.28628958496673 14.848196188198111 C49.06859597595042 15.021801048318386, 48.850902366934115 15.19540590843866, 48.308991221043556 15.627565626425152 C48.07049889361318 15.793927549874127, 47.8320065661828 15.960289473323103, 47.28376645007055 16.34271804539089 C46.9114372919237 16.568426169108516, 46.539108133776836 16.794134292826143, 46.21482814054163 16.990714730406093 C45.88539838805909 17.16257802126641, 45.55596863557655 17.33444131212672, 45.10656878925723 17.56889292409717 C44.71402459714482 17.742660593535604, 44.3214804050324 17.916428262974037, 43.96354247161265 18.07487676824742 C43.60537634795203 18.206685212605883, 43.24721022429141 18.338493656964342, 42.79044612792546 18.506587066708033 C42.40497302859637 18.62099345919932, 42.01949992926728 18.735399851690605, 41.59210026270026 18.86224982926107 C41.24069019713836 18.942456883560588, 40.88928013157646 19.022663937860106, 40.37342913614161 19.140403561325773 C40.11675129761606 19.181901243692216, 39.860073459090515 19.22339892605866, 39.13944052931272 19.3399052695533 C38.800664624988585 19.372586573605812, 38.46188872066445 19.40526787765833, 37.89520516608874 19.45993515863156 C37.528298192050045 19.47170115114788, 37.161391218011346 19.4834671436642, 36.64583587646485 19.5 C36.64583587646485 19.5, 36.645835876464844 19.5, 36.645835876464844 19.5 C9.008621311590804 19.5, -18.628593253283235 19.5, -36.64583587646484 19.5 C-37.127202611326545 19.484563505736496, -37.60856934618826 19.469127011472988, -37.895205166088736 19.45993515863156 C-38.1502781487527 19.43532857476411, -38.40535113141666 19.41072199089666, -39.139440529312715 19.3399052695533 C-39.43762804204219 19.291696624973895, -39.73581555477167 19.24348798039449, -40.3734291361416 19.140403561325773 C-40.70163326886764 19.065493109763175, -41.02983740159368 18.99058265820058, -41.59210026270023 18.862249829261074 C-42.06709302975265 18.72127446928783, -42.54208579680506 18.580299109314588, -42.790446127925435 18.506587066708043 C-43.146272547689136 18.375639655011636, -43.50209896745284 18.244692243315225, -43.96354247161264 18.074876768247425 C-44.356814438810986 17.90078693436713, -44.75008640600933 17.726697100486835, -45.106568789257224 17.568892924097174 C-45.40361603813759 17.41392356462413, -45.70066328701796 17.258954205151085, -46.21482814054163 16.990714730406097 C-46.47741662993997 16.831532044991572, -46.740005119338306 16.672349359577048, -47.28376645007053 16.3427180453909 C-47.54311164297929 16.161810065690204, -47.80245683588806 15.980902085989506, -48.308991221043556 15.627565626425156 C-48.67952047556006 15.33207840614581, -49.05004973007656 15.036591185866461, -49.28628958496671 14.848196188198125 C-49.57471568090011 14.58625523920772, -49.86314177683352 14.324314290217316, -50.21164561323282 14.007812326905697 C-50.46715559205201 13.743977296015492, -50.72266557087119 13.480142265125286, -51.0812568194335 13.109867360095677 C-51.280392702858606 12.875951020271781, -51.47952858628371 12.642034680447885, -51.89154978459142 12.158051136245307 C-52.18205348395477 11.768802644529883, -52.47255718331811 11.379554152814457, -52.63919484110548 11.156274872382316 C-52.881041023412656 10.784734191565416, -53.122887205719834 10.413193510748517, -53.32111975506909 10.108655082055249 C-53.52748553372431 9.742231745251846, -53.73385131237953 9.375808408448442, -53.93452235073835 9.019496659696289 C-54.0650652128802 8.74842161328894, -54.19560807502205 8.477346566881591, -54.476882025273184 7.893275190886686 C-54.578326620124216 7.642705080306824, -54.67977121497525 7.392134969726961, -54.94597010643517 6.73461856121551 C-55.099427339482446 6.2724298253668005, -55.25288457252973 5.810241089518092, -55.339859010679724 5.5482879393051325 C-55.409818198177135 5.281503236873851, -55.479777385674545 5.014718534442569, -55.656930164010404 4.339158212148136 C-55.73905469335604 3.9174661109837263, -55.82117922270167 3.495774009819317, -55.89588065304662 3.112197953150904 C-55.94131147321343 2.759845483267257, -55.98674229338025 2.4074930133836103, -56.05572857897421 1.872449005199809 C-56.08567620413673 1.4059905700056525, -56.115623829299246 0.939532134811496, -56.13581709237826 0.6250057626472781 C-56.13581709237826 0.2727187009079858, -56.13581709237826 -0.07956836083130658, -56.13581709237826 -0.6250057626472687 C-56.11959130073211 -0.8777355647593328, -56.10336550908596 -1.1304653668713969, -56.05572857897421 -1.8724490051997822 C-56.022434814643155 -2.1306688667540197, -55.98914105031211 -2.3888887283082574, -55.89588065304662 -3.112197953150895 C-55.833084884786466 -3.434640951276457, -55.770289116526314 -3.7570839494020185, -55.656930164010404 -4.339158212148126 C-55.545756675501494 -4.763110906727327, -55.434583186992576 -5.187063601306527, -55.33985901067973 -5.548287939305123 C-55.18268069560399 -6.021683981349643, -55.02550238052825 -6.495080023394163, -54.945970106435176 -6.734618561215485 C-54.82403691557279 -7.03579590006345, -54.702103724710405 -7.3369732389114155, -54.476882025273184 -7.893275190886676 C-54.29314400117013 -8.274811129300597, -54.10940597706708 -8.656347067714517, -53.93452235073835 -9.019496659696282 C-53.72450508647998 -9.392403578941094, -53.514487822221604 -9.765310498185906, -53.32111975506909 -10.108655082055243 C-53.07755677609416 -10.482833223578272, -52.83399379711923 -10.857011365101298, -52.639194841105486 -11.156274872382308 C-52.39160095968671 -11.488028117216846, -52.14400707826793 -11.819781362051383, -51.89154978459143 -12.158051136245302 C-51.59860188042592 -12.502164413686078, -51.30565397626041 -12.846277691126852, -51.081256819433506 -13.10986736009567 C-50.742670507160135 -13.459485525971147, -50.40408419488676 -13.809103691846623, -50.21164561323284 -14.007812326905677 C-49.88800416187314 -14.301734929946994, -49.56436271051344 -14.595657532988312, -49.28628958496673 -14.848196188198107 C-48.97272162366527 -15.098258292942129, -48.65915366236381 -15.348320397686152, -48.30899122104356 -15.627565626425149 C-48.05543719701252 -15.804433937412409, -47.80188317298148 -15.981302248399667, -47.28376645007056 -16.342718045390885 C-46.95282728716383 -16.543335310759335, -46.621888124257104 -16.743952576127786, -46.214828140541634 -16.99071473040609 C-45.99218114764321 -17.106869523988994, -45.76953415474479 -17.223024317571895, -45.10656878925723 -17.56889292409717 C-44.83303433655228 -17.689978512198408, -44.55949988384733 -17.811064100299646, -43.96354247161265 -18.07487676824742 C-43.53866334088455 -18.23123621589499, -43.11378421015645 -18.387595663542562, -42.79044612792546 -18.506587066708033 C-42.33366879735281 -18.64215618074886, -41.87689146678016 -18.77772529478969, -41.59210026270026 -18.862249829261067 C-41.306269320458725 -18.927488876606485, -41.0204383782172 -18.9927279239519, -40.37342913614161 -19.140403561325773 C-39.98516276764226 -19.20317545673409, -39.5968963991429 -19.26594735214241, -39.13944052931272 -19.3399052695533 C-38.81887804534344 -19.370829546849023, -38.498315561374156 -19.40175382414475, -37.89520516608874 -19.45993515863156 C-37.419074083668136 -19.475203755711856, -36.942943001247535 -19.490472352792157, -36.64583587646485 -19.5 C-36.64583587646485 -19.5, -36.645835876464844 -19.5, -36.645835876464844 -19.5" stroke="none" stroke-width="0" fill="#ffffff" style=""></path><path d="M-36.645835876464844 -19.5 C-7.671281603737842 -19.5, 21.30327266898916 -19.5, 36.645835876464844 -19.5 M-36.645835876464844 -19.5 C-17.641048284123148 -19.5, 1.3637393082185483 -19.5, 36.645835876464844 -19.5 M36.645835876464844 -19.5 C36.645835876464844 -19.5, 36.645835876464844 -19.5, 36.645835876464844 -19.5 M36.645835876464844 -19.5 C36.645835876464844 -19.5, 36.645835876464844 -19.5, 36.645835876464844 -19.5 M36.645835876464844 -19.5 C37.1125802861571 -19.48503241524405, 37.57932469584935 -19.4700648304881, 37.89520516608874 -19.45993515863156 M36.645835876464844 -19.5 C37.12595220516898 -19.4846036038282, 37.60606853387311 -19.4692072076564, 37.89520516608874 -19.45993515863156 M37.89520516608874 -19.45993515863156 C38.18611444894378 -19.431871489984132, 38.47702373179882 -19.40380782133671, 39.13944052931271 -19.3399052695533 M37.89520516608874 -19.45993515863156 C38.224557778386654 -19.428162908227648, 38.55391039068456 -19.396390657823737, 39.13944052931271 -19.3399052695533 M39.13944052931271 -19.3399052695533 C39.54587501197991 -19.274196094342155, 39.9523094946471 -19.20848691913101, 40.3734291361416 -19.140403561325776 M39.13944052931271 -19.3399052695533 C39.4714891288951 -19.286222227048167, 39.8035377284775 -19.232539184543032, 40.3734291361416 -19.140403561325776 M40.3734291361416 -19.140403561325776 C40.679902728187564 -19.070452963868377, 40.986376320233525 -19.000502366410977, 41.592100262700235 -18.862249829261074 M40.3734291361416 -19.140403561325776 C40.674205812219846 -19.071753247762157, 40.974982488298096 -19.003102934198537, 41.592100262700235 -18.862249829261074 M41.592100262700235 -18.862249829261074 C41.95148845962253 -18.75558529888168, 42.31087665654482 -18.648920768502286, 42.79044612792545 -18.50658706670804 M41.592100262700235 -18.862249829261074 C41.9870192017458 -18.745039961124164, 42.38193814079137 -18.627830092987253, 42.79044612792545 -18.50658706670804 M42.79044612792545 -18.50658706670804 C43.22525488339697 -18.346573425366444, 43.66006363886849 -18.186559784024848, 43.96354247161264 -18.074876768247425 M42.79044612792545 -18.50658706670804 C43.10868707183622 -18.38947145756184, 43.426928015746995 -18.272355848415636, 43.96354247161264 -18.074876768247425 M43.96354247161264 -18.074876768247425 C44.33041281575612 -17.912474149717198, 44.6972831598996 -17.750071531186972, 45.106568789257224 -17.568892924097174 M43.96354247161264 -18.074876768247425 C44.39776314831024 -17.88266015537212, 44.83198382500784 -17.690443542496816, 45.106568789257224 -17.568892924097174 M45.106568789257224 -17.568892924097174 C45.390974112312385 -17.4205188492296, 45.675379435367546 -17.27214477436203, 46.21482814054163 -16.990714730406097 M45.106568789257224 -17.568892924097174 C45.361757708262424 -17.435761028508466, 45.61694662726762 -17.302629132919755, 46.21482814054163 -16.990714730406097 M46.21482814054163 -16.990714730406097 C46.62662594057112 -16.74108048403573, 47.038423740600614 -16.491446237665365, 47.283766450070544 -16.342718045390892 M46.21482814054163 -16.990714730406097 C46.46576064534793 -16.838597971349433, 46.716693150154235 -16.686481212292772, 47.283766450070544 -16.342718045390892 M47.283766450070544 -16.342718045390892 C47.67946957621293 -16.06669267430621, 48.07517270235532 -15.79066730322153, 48.308991221043556 -15.627565626425154 M47.283766450070544 -16.342718045390892 C47.64496645961091 -16.090760554831938, 48.006166469151275 -15.83880306427298, 48.308991221043556 -15.627565626425154 M48.308991221043556 -15.627565626425154 C48.660800460514785 -15.34700711998389, 49.012609699986015 -15.066448613542626, 49.28628958496671 -14.848196188198123 M48.308991221043556 -15.627565626425154 C48.62555467968614 -15.375114692265118, 48.942118138328716 -15.122663758105084, 49.28628958496671 -14.848196188198123 M49.28628958496671 -14.848196188198123 C49.58991350671774 -14.572452975912586, 49.89353742846878 -14.296709763627048, 50.21164561323283 -14.007812326905688 M49.28628958496671 -14.848196188198123 C49.51942664831718 -14.636467275731905, 49.75256371166765 -14.424738363265684, 50.21164561323283 -14.007812326905688 M50.21164561323283 -14.007812326905688 C50.38674345815781 -13.827009426220222, 50.561841303082794 -13.646206525534756, 51.08125681943349 -13.10986736009568 M50.21164561323283 -14.007812326905688 C50.430383266917644 -13.781947740780764, 50.649120920602456 -13.55608315465584, 51.08125681943349 -13.10986736009568 M51.08125681943349 -13.10986736009568 C51.26293819496353 -12.896454078434965, 51.44461957049358 -12.683040796774248, 51.891549784591426 -12.158051136245305 M51.08125681943349 -13.10986736009568 C51.33414090764121 -12.812815320574634, 51.58702499584894 -12.515763281053587, 51.891549784591426 -12.158051136245305 M51.891549784591426 -12.158051136245305 C52.130086245719475 -11.83843400945238, 52.368622706847525 -11.518816882659454, 52.63919484110548 -11.156274872382312 M51.891549784591426 -12.158051136245305 C52.14727677239852 -11.815400269791658, 52.40300376020561 -11.47274940333801, 52.63919484110548 -11.156274872382312 M52.63919484110548 -11.156274872382312 C52.896868809148025 -10.760418462320306, 53.15454277719057 -10.3645620522583, 53.32111975506909 -10.108655082055241 M52.63919484110548 -11.156274872382312 C52.82539175091531 -10.870226418043353, 53.01158866072513 -10.584177963704395, 53.32111975506909 -10.108655082055241 M53.32111975506909 -10.108655082055241 C53.510300559670206 -9.77274540685222, 53.69948136427133 -9.436835731649198, 53.93452235073835 -9.019496659696287 M53.32111975506909 -10.108655082055241 C53.566078918246504 -9.673705283028738, 53.81103808142391 -9.238755484002237, 53.93452235073835 -9.019496659696287 M53.93452235073835 -9.019496659696287 C54.097030358357515 -8.68204530476075, 54.259538365976674 -8.344593949825216, 54.476882025273184 -7.893275190886684 M53.93452235073835 -9.019496659696287 C54.10083368480835 -8.674147616007437, 54.26714501887835 -8.328798572318584, 54.476882025273184 -7.893275190886684 M54.476882025273184 -7.893275190886684 C54.605434773686135 -7.575747416908382, 54.73398752209909 -7.258219642930081, 54.94597010643517 -6.734618561215508 M54.476882025273184 -7.893275190886684 C54.66439314826367 -7.430119091819247, 54.851904271254156 -6.966962992751809, 54.94597010643517 -6.734618561215508 M54.94597010643517 -6.734618561215508 C55.04283009751606 -6.44289170062366, 55.13969008859695 -6.151164840031811, 55.339859010679724 -5.548287939305138 M54.94597010643517 -6.734618561215508 C55.02768867066938 -6.48849526582712, 55.109407234903586 -6.242371970438731, 55.339859010679724 -5.548287939305138 M55.339859010679724 -5.548287939305138 C55.43048111466527 -5.202706580939931, 55.52110321865082 -4.857125222574725, 55.656930164010404 -4.339158212148133 M55.339859010679724 -5.548287939305138 C55.415822819433245 -5.258605013604996, 55.491786628186766 -4.968922087904855, 55.656930164010404 -4.339158212148133 M55.656930164010404 -4.339158212148133 C55.71341731350988 -4.049108638031583, 55.76990446300936 -3.7590590639150325, 55.89588065304662 -3.1121979531509023 M55.656930164010404 -4.339158212148133 C55.74559172254473 -3.8838998477013846, 55.83425328107906 -3.428641483254636, 55.89588065304662 -3.1121979531509023 M55.89588065304662 -3.1121979531509023 C55.9518040591304 -2.678467058890672, 56.007727465214195 -2.244736164630441, 56.05572857897421 -1.872449005199798 M55.89588065304662 -3.1121979531509023 C55.937422424213544 -2.7900081793308047, 55.97896419538047 -2.4678184055107066, 56.05572857897421 -1.872449005199798 M56.05572857897421 -1.872449005199798 C56.08017140097972 -1.4917323225731405, 56.104614222985234 -1.111015639946483, 56.13581709237826 -0.6250057626472757 M56.05572857897421 -1.872449005199798 C56.07519203599719 -1.5692899514471406, 56.09465549302017 -1.2661308976944832, 56.13581709237826 -0.6250057626472757 M56.13581709237826 -0.6250057626472757 C56.13581709237826 -0.32757317389437035, 56.13581709237826 -0.030140585141465004, 56.13581709237826 0.625005762647271 M56.13581709237826 -0.6250057626472757 C56.13581709237826 -0.22904829389183268, 56.13581709237826 0.16690917486361034, 56.13581709237826 0.625005762647271 M56.13581709237826 0.625005762647271 C56.11877621294807 0.8904312149228286, 56.10173533351787 1.1558566671983863, 56.05572857897421 1.8724490051997846 M56.13581709237826 0.625005762647271 C56.1110259183818 1.0111483087176716, 56.08623474438533 1.3972908547880722, 56.05572857897421 1.8724490051997846 M56.05572857897421 1.8724490051997846 C56.0146678051563 2.190908258564586, 55.97360703133839 2.509367511929387, 55.89588065304662 3.1121979531508885 M56.05572857897421 1.8724490051997846 C56.00187567878146 2.2901214646367762, 55.94802277858871 2.707793924073768, 55.89588065304662 3.1121979531508885 M55.89588065304662 3.1121979531508885 C55.81092089864894 3.5484483357325463, 55.72596114425125 3.9846987183142044, 55.656930164010404 4.339158212148129 M55.89588065304662 3.1121979531508885 C55.84325592452791 3.382414811854136, 55.79063119600921 3.652631670557384, 55.656930164010404 4.339158212148129 M55.656930164010404 4.339158212148129 C55.5378535235711 4.793249050285611, 55.418776883131805 5.247339888423093, 55.33985901067973 5.548287939305125 M55.656930164010404 4.339158212148129 C55.584598058798996 4.614991878251931, 55.51226595358759 4.890825544355733, 55.33985901067973 5.548287939305125 M55.33985901067973 5.548287939305125 C55.21431035826109 5.92642047692883, 55.088761705842444 6.304553014552535, 54.94597010643517 6.734618561215495 M55.33985901067973 5.548287939305125 C55.245387721370136 5.832820410749761, 55.15091643206054 6.117352882194398, 54.94597010643517 6.734618561215495 M54.94597010643517 6.734618561215495 C54.831755973319126 7.016729678192169, 54.71754184020308 7.298840795168843, 54.476882025273184 7.893275190886679 M54.94597010643517 6.734618561215495 C54.76298691828727 7.186590573680089, 54.58000373013936 7.638562586144684, 54.476882025273184 7.893275190886679 M54.476882025273184 7.893275190886679 C54.35509494657783 8.146168665623632, 54.233307867882466 8.399062140360584, 53.93452235073835 9.019496659696284 M54.476882025273184 7.893275190886679 C54.345136017551944 8.166848594832821, 54.213390009830704 8.440421998778962, 53.93452235073835 9.019496659696284 M53.93452235073835 9.019496659696284 C53.73473448814124 9.374240240452274, 53.53494662554414 9.728983821208264, 53.32111975506909 10.108655082055236 M53.93452235073835 9.019496659696284 C53.79483265821568 9.267529853885483, 53.655142965693024 9.51556304807468, 53.32111975506909 10.108655082055236 M53.32111975506909 10.108655082055236 C53.14551297134547 10.378434258878755, 52.969906187621845 10.648213435702274, 52.639194841105486 11.156274872382301 M53.32111975506909 10.108655082055236 C53.12801104736758 10.405321914033436, 52.93490233966607 10.701988746011635, 52.639194841105486 11.156274872382301 M52.639194841105486 11.156274872382301 C52.35475354978877 11.537400289611982, 52.07031225847205 11.918525706841665, 51.891549784591426 12.158051136245302 M52.639194841105486 11.156274872382301 C52.424456800295204 11.444004284030111, 52.20971875948492 11.73173369567792, 51.891549784591426 12.158051136245302 M51.891549784591426 12.158051136245302 C51.71532911153237 12.365049966060823, 51.53910843847332 12.572048795876345, 51.081256819433506 13.10986736009567 M51.891549784591426 12.158051136245302 C51.58440364750872 12.51884246597295, 51.27725751042602 12.879633795700599, 51.081256819433506 13.10986736009567 M51.081256819433506 13.10986736009567 C50.74066452575914 13.461556866461805, 50.400072232084774 13.81324637282794, 50.21164561323283 14.007812326905684 M51.081256819433506 13.10986736009567 C50.800800710550035 13.399461318392612, 50.52034460166657 13.689055276689553, 50.21164561323283 14.007812326905684 M50.21164561323283 14.007812326905684 C50.00647607294033 14.194141874910768, 49.801306532647835 14.380471422915853, 49.28628958496673 14.848196188198111 M50.21164561323283 14.007812326905684 C49.89760034940884 14.293019926328283, 49.58355508558485 14.578227525750881, 49.28628958496673 14.848196188198111 M49.28628958496673 14.848196188198111 C49.075384230594 15.016387595883183, 48.864478876221256 15.184579003568253, 48.308991221043556 15.627565626425152 M49.28628958496673 14.848196188198111 C49.07267579440862 15.018547501666504, 48.85906200385051 15.188898815134896, 48.308991221043556 15.627565626425152 M48.308991221043556 15.627565626425152 C47.95460445935217 15.874770490225407, 47.60021769766078 16.12197535402566, 47.28376645007055 16.34271804539089 M48.308991221043556 15.627565626425152 C47.96275747941762 15.8690832963663, 47.61652373779168 16.110600966307448, 47.28376645007055 16.34271804539089 M47.28376645007055 16.34271804539089 C46.85933189805817 16.600012765075075, 46.4348973460458 16.85730748475926, 46.21482814054163 16.990714730406093 M47.28376645007055 16.34271804539089 C46.92348523307931 16.561122636378418, 46.56320401608807 16.77952722736595, 46.21482814054163 16.990714730406093 M46.21482814054163 16.990714730406093 C45.860794735846646 17.175413730866246, 45.506761331151665 17.3601127313264, 45.10656878925723 17.56889292409717 M46.21482814054163 16.990714730406093 C45.819587408727045 17.19691156702999, 45.42434667691247 17.40310840365388, 45.10656878925723 17.56889292409717 M45.10656878925723 17.56889292409717 C44.85531945929365 17.680113549425478, 44.604070129330076 17.79133417475379, 43.96354247161265 18.07487676824742 M45.10656878925723 17.56889292409717 C44.86352960642219 17.67647916083704, 44.62049042358714 17.78406539757691, 43.96354247161265 18.07487676824742 M43.96354247161265 18.07487676824742 C43.66941526798885 18.183118298063043, 43.37528806436505 18.29135982787867, 42.79044612792546 18.506587066708033 M43.96354247161265 18.07487676824742 C43.49935713170448 18.245701264215874, 43.0351717917963 18.416525760184324, 42.79044612792546 18.506587066708033 M42.79044612792546 18.506587066708033 C42.49912331841397 18.59305014738641, 42.20780050890248 18.679513228064792, 41.59210026270026 18.86224982926107 M42.79044612792546 18.506587066708033 C42.40897982727426 18.619804262383838, 42.02751352662305 18.733021458059646, 41.59210026270026 18.86224982926107 M41.59210026270026 18.86224982926107 C41.13581989048056 18.966392846712523, 40.67953951826087 19.070535864163976, 40.37342913614161 19.140403561325773 M41.59210026270026 18.86224982926107 C41.13762642249412 18.965980517569154, 40.68315258228799 19.069711205877233, 40.37342913614161 19.140403561325773 M40.37342913614161 19.140403561325773 C40.095025999951204 19.185413621336473, 39.8166228637608 19.23042368134717, 39.13944052931272 19.3399052695533 M40.37342913614161 19.140403561325773 C40.12303384971998 19.180885529389975, 39.87263856329835 19.221367497454175, 39.13944052931272 19.3399052695533 M39.13944052931272 19.3399052695533 C38.71730844413255 19.38062784412252, 38.295176358952375 19.42135041869174, 37.89520516608874 19.45993515863156 M39.13944052931272 19.3399052695533 C38.86848018350857 19.366044488235534, 38.597519837704404 19.392183706917766, 37.89520516608874 19.45993515863156 M37.89520516608874 19.45993515863156 C37.464710011583776 19.473740300328547, 37.03421485707881 19.487545442025535, 36.64583587646485 19.5 M37.89520516608874 19.45993515863156 C37.465919098913616 19.473701527251226, 37.03663303173848 19.487467895870893, 36.64583587646485 19.5 M36.64583587646485 19.5 C36.64583587646485 19.5, 36.64583587646485 19.5, 36.645835876464844 19.5 M36.64583587646485 19.5 C36.64583587646485 19.5, 36.645835876464844 19.5, 36.645835876464844 19.5 M36.645835876464844 19.5 C13.375286566297053 19.5, -9.895262743870738 19.5, -36.64583587646484 19.5 M36.645835876464844 19.5 C14.724747006387428 19.5, -7.196341863689987 19.5, -36.64583587646484 19.5 M-36.64583587646484 19.5 C-36.965759780645 19.489740663087044, -37.28568368482516 19.479481326174092, -37.895205166088736 19.45993515863156 M-36.64583587646484 19.5 C-36.933568967326885 19.49077295981454, -37.22130205818893 19.48154591962908, -37.895205166088736 19.45993515863156 M-37.895205166088736 19.45993515863156 C-38.182287560512414 19.4322406653086, -38.46936995493609 19.404546171985643, -39.139440529312715 19.3399052695533 M-37.895205166088736 19.45993515863156 C-38.17626712593116 19.432821449392023, -38.45732908577359 19.405707740152486, -39.139440529312715 19.3399052695533 M-39.139440529312715 19.3399052695533 C-39.491499244989654 19.28298714665877, -39.84355796066659 19.226069023764236, -40.3734291361416 19.140403561325773 M-39.139440529312715 19.3399052695533 C-39.623543540809536 19.261639248929416, -40.10764655230636 19.183373228305534, -40.3734291361416 19.140403561325773 M-40.3734291361416 19.140403561325773 C-40.72021915141662 19.06125100335559, -41.06700916669165 18.982098445385404, -41.59210026270023 18.862249829261074 M-40.3734291361416 19.140403561325773 C-40.797649182769355 19.043578103977502, -41.2218692293971 18.946752646629236, -41.59210026270023 18.862249829261074 M-41.59210026270023 18.862249829261074 C-41.84946079046132 18.78586657553456, -42.10682131822242 18.709483321808044, -42.790446127925435 18.506587066708043 M-41.59210026270023 18.862249829261074 C-41.962314192605376 18.7523722781578, -42.332528122510524 18.642494727054526, -42.790446127925435 18.506587066708043 M-42.790446127925435 18.506587066708043 C-43.19639874338487 18.35719275163413, -43.602351358844295 18.20779843656022, -43.96354247161264 18.074876768247425 M-42.790446127925435 18.506587066708043 C-43.25595057848992 18.33527712582434, -43.72145502905442 18.16396718494064, -43.96354247161264 18.074876768247425 M-43.96354247161264 18.074876768247425 C-44.34608748045303 17.905535440628285, -44.72863248929342 17.736194113009145, -45.106568789257224 17.568892924097174 M-43.96354247161264 18.074876768247425 C-44.384531912043975 17.888517231176518, -44.80552135247531 17.70215769410561, -45.106568789257224 17.568892924097174 M-45.106568789257224 17.568892924097174 C-45.46707400487628 17.380817584023323, -45.82757922049534 17.19274224394947, -46.21482814054163 16.990714730406097 M-45.106568789257224 17.568892924097174 C-45.477914572412566 17.37516206688336, -45.84926035556791 17.181431209669544, -46.21482814054163 16.990714730406097 M-46.21482814054163 16.990714730406097 C-46.52673366703629 16.801635767284704, -46.83863919353095 16.612556804163308, -47.28376645007053 16.3427180453909 M-46.21482814054163 16.990714730406097 C-46.46597756324103 16.838466474447884, -46.717126985940446 16.686218218489667, -47.28376645007053 16.3427180453909 M-47.28376645007053 16.3427180453909 C-47.597605306923334 16.12379764471553, -47.911444163776146 15.904877244040161, -48.308991221043556 15.627565626425156 M-47.28376645007053 16.3427180453909 C-47.4994111286961 16.192293652689383, -47.715055807321676 16.041869259987866, -48.308991221043556 15.627565626425156 M-48.308991221043556 15.627565626425156 C-48.57306482403895 15.41697395533003, -48.83713842703435 15.206382284234907, -49.28628958496671 14.848196188198125 M-48.308991221043556 15.627565626425156 C-48.63715777518251 15.365861532378103, -48.96532432932146 15.10415743833105, -49.28628958496671 14.848196188198125 M-49.28628958496671 14.848196188198125 C-49.63105323365197 14.53509096440845, -49.97581688233723 14.221985740618775, -50.21164561323282 14.007812326905697 M-49.28628958496671 14.848196188198125 C-49.58754900659023 14.574600352367153, -49.88880842821374 14.30100451653618, -50.21164561323282 14.007812326905697 M-50.21164561323282 14.007812326905697 C-50.40481854605794 13.808345413971026, -50.59799147888305 13.608878501036356, -51.0812568194335 13.109867360095677 M-50.21164561323282 14.007812326905697 C-50.546329082366825 13.662224167001002, -50.88101255150083 13.316636007096305, -51.0812568194335 13.109867360095677 M-51.0812568194335 13.109867360095677 C-51.35532918103645 12.787926368997677, -51.62940154263941 12.465985377899678, -51.89154978459142 12.158051136245307 M-51.0812568194335 13.109867360095677 C-51.285807660898705 12.869590302438043, -51.490358502363904 12.629313244780409, -51.89154978459142 12.158051136245307 M-51.89154978459142 12.158051136245307 C-52.146875534618516 11.815937891863346, -52.402201284645614 11.473824647481383, -52.63919484110548 11.156274872382316 M-51.89154978459142 12.158051136245307 C-52.08028989019218 11.905156589317643, -52.26902999579293 11.652262042389982, -52.63919484110548 11.156274872382316 M-52.63919484110548 11.156274872382316 C-52.837864816412065 10.851064439953273, -53.03653479171866 10.54585400752423, -53.32111975506909 10.108655082055249 M-52.63919484110548 11.156274872382316 C-52.85898709031536 10.818614955113102, -53.07877933952524 10.48095503784389, -53.32111975506909 10.108655082055249 M-53.32111975506909 10.108655082055249 C-53.50362481385813 9.784598869534136, -53.68612987264717 9.460542657013024, -53.93452235073835 9.019496659696289 M-53.32111975506909 10.108655082055249 C-53.502144703552744 9.787226955258769, -53.6831696520364 9.465798828462288, -53.93452235073835 9.019496659696289 M-53.93452235073835 9.019496659696289 C-54.14192590387751 8.588818743877692, -54.349329457016665 8.158140828059096, -54.476882025273184 7.893275190886686 M-53.93452235073835 9.019496659696289 C-54.09727876249495 8.681529488254368, -54.26003517425155 8.343562316812447, -54.476882025273184 7.893275190886686 M-54.476882025273184 7.893275190886686 C-54.63129712636712 7.511866905771773, -54.78571222746106 7.130458620656859, -54.94597010643517 6.73461856121551 M-54.476882025273184 7.893275190886686 C-54.654395664158685 7.454813070846763, -54.83190930304419 7.0163509508068405, -54.94597010643517 6.73461856121551 M-54.94597010643517 6.73461856121551 C-55.08271598540024 6.322761761269725, -55.219461864365314 5.910904961323942, -55.339859010679724 5.5482879393051325 M-54.94597010643517 6.73461856121551 C-55.09391404182472 6.289034999487197, -55.241857977214266 5.843451437758884, -55.339859010679724 5.5482879393051325 M-55.339859010679724 5.5482879393051325 C-55.442210661606936 5.157976734833559, -55.54456231253415 4.767665530361986, -55.656930164010404 4.339158212148136 M-55.339859010679724 5.5482879393051325 C-55.41560360309582 5.259440980508571, -55.491348195511904 4.970594021712008, -55.656930164010404 4.339158212148136 M-55.656930164010404 4.339158212148136 C-55.713846327583724 4.046905741434555, -55.77076249115705 3.7546532707209748, -55.89588065304662 3.112197953150904 M-55.656930164010404 4.339158212148136 C-55.73254254147717 3.9509046345379204, -55.808154918943934 3.562651056927705, -55.89588065304662 3.112197953150904 M-55.89588065304662 3.112197953150904 C-55.9565952741633 2.641307341227981, -56.01730989527998 2.1704167293050576, -56.05572857897421 1.872449005199809 M-55.89588065304662 3.112197953150904 C-55.93428191858733 2.8143653208047215, -55.97268318412805 2.516532688458539, -56.05572857897421 1.872449005199809 M-56.05572857897421 1.872449005199809 C-56.084080487869564 1.4308451389057302, -56.112432396764916 0.9892412726116511, -56.13581709237826 0.6250057626472781 M-56.05572857897421 1.872449005199809 C-56.07599076061366 1.5568491708267822, -56.0962529422531 1.2412493364537553, -56.13581709237826 0.6250057626472781 M-56.13581709237826 0.6250057626472781 C-56.13581709237826 0.1550732715577437, -56.13581709237826 -0.31485921953179075, -56.13581709237826 -0.6250057626472687 M-56.13581709237826 0.6250057626472781 C-56.13581709237826 0.23993167980879565, -56.13581709237826 -0.14514240302968684, -56.13581709237826 -0.6250057626472687 M-56.13581709237826 -0.6250057626472687 C-56.11569466989404 -0.9384287353660428, -56.09557224740983 -1.2518517080848168, -56.05572857897421 -1.8724490051997822 M-56.13581709237826 -0.6250057626472687 C-56.11512746783689 -0.9472633652434386, -56.09443784329552 -1.2695209678396084, -56.05572857897421 -1.8724490051997822 M-56.05572857897421 -1.8724490051997822 C-56.01007116571509 -2.2265588863614982, -55.96441375245597 -2.580668767523214, -55.89588065304662 -3.112197953150895 M-56.05572857897421 -1.8724490051997822 C-56.0159087705036 -2.1812835763872744, -55.97608896203298 -2.4901181475747665, -55.89588065304662 -3.112197953150895 M-55.89588065304662 -3.112197953150895 C-55.82516447649828 -3.475310573857414, -55.75444829994994 -3.8384231945639327, -55.656930164010404 -4.339158212148126 M-55.89588065304662 -3.112197953150895 C-55.83857782234571 -3.4064358778424904, -55.78127499164481 -3.700673802534086, -55.656930164010404 -4.339158212148126 M-55.656930164010404 -4.339158212148126 C-55.56968487696704 -4.671862303991086, -55.48243958992367 -5.004566395834045, -55.33985901067973 -5.548287939305123 M-55.656930164010404 -4.339158212148126 C-55.55921116519933 -4.711803106296754, -55.461492166388254 -5.084448000445383, -55.33985901067973 -5.548287939305123 M-55.33985901067973 -5.548287939305123 C-55.21251085797814 -5.931840285069643, -55.085162705276545 -6.315392630834163, -54.945970106435176 -6.734618561215485 M-55.33985901067973 -5.548287939305123 C-55.219155537000304 -5.911827570540722, -55.09845206332087 -6.27536720177632, -54.945970106435176 -6.734618561215485 M-54.945970106435176 -6.734618561215485 C-54.849992247416395 -6.971685728597547, -54.75401438839761 -7.208752895979609, -54.476882025273184 -7.893275190886676 M-54.945970106435176 -6.734618561215485 C-54.770032246389086 -7.169188477056446, -54.594094386342995 -7.603758392897408, -54.476882025273184 -7.893275190886676 M-54.476882025273184 -7.893275190886676 C-54.357481818005176 -8.141212276033873, -54.23808161073716 -8.389149361181069, -53.93452235073835 -9.019496659696282 M-54.476882025273184 -7.893275190886676 C-54.3577954189387 -8.140561076985428, -54.23870881260421 -8.387846963084181, -53.93452235073835 -9.019496659696282 M-53.93452235073835 -9.019496659696282 C-53.73798416050205 -9.368470118110643, -53.54144597026576 -9.717443576525007, -53.32111975506909 -10.108655082055243 M-53.93452235073835 -9.019496659696282 C-53.75808815374277 -9.332773442361697, -53.58165395674718 -9.646050225027112, -53.32111975506909 -10.108655082055243 M-53.32111975506909 -10.108655082055243 C-53.096595875384054 -10.45358405435499, -52.87207199569902 -10.798513026654735, -52.639194841105486 -11.156274872382308 M-53.32111975506909 -10.108655082055243 C-53.16562949786368 -10.347529872103069, -53.01013924065826 -10.586404662150894, -52.639194841105486 -11.156274872382308 M-52.639194841105486 -11.156274872382308 C-52.36600269222656 -11.522327463563306, -52.09281054334763 -11.888380054744303, -51.89154978459143 -12.158051136245302 M-52.639194841105486 -11.156274872382308 C-52.40752317381586 -11.466693800827334, -52.17585150652623 -11.77711272927236, -51.89154978459143 -12.158051136245302 M-51.89154978459143 -12.158051136245302 C-51.69491072773592 -12.389034561507094, -51.498271670880406 -12.620017986768884, -51.081256819433506 -13.10986736009567 M-51.89154978459143 -12.158051136245302 C-51.687085044369674 -12.398227054483087, -51.48262030414791 -12.638402972720874, -51.081256819433506 -13.10986736009567 M-51.081256819433506 -13.10986736009567 C-50.7580642819705 -13.44359018962703, -50.43487174450748 -13.77731301915839, -50.21164561323284 -14.007812326905677 M-51.081256819433506 -13.10986736009567 C-50.89336216185727 -13.303884020481416, -50.705467504281025 -13.497900680867163, -50.21164561323284 -14.007812326905677 M-50.21164561323284 -14.007812326905677 C-49.9257024092592 -14.267498379111943, -49.639759205285564 -14.527184431318208, -49.28628958496673 -14.848196188198107 M-50.21164561323284 -14.007812326905677 C-49.9312524960003 -14.262457937180924, -49.65085937876776 -14.517103547456172, -49.28628958496673 -14.848196188198107 M-49.28628958496673 -14.848196188198107 C-48.91997471946352 -15.14032254538896, -48.5536598539603 -15.432448902579814, -48.30899122104356 -15.627565626425149 M-49.28628958496673 -14.848196188198107 C-49.01424044061295 -15.065148141288473, -48.74219129625918 -15.28210009437884, -48.30899122104356 -15.627565626425149 M-48.30899122104356 -15.627565626425149 C-47.96109502790486 -15.870242950575234, -47.61319883476616 -16.11292027472532, -47.28376645007056 -16.342718045390885 M-48.30899122104356 -15.627565626425149 C-47.90973966445768 -15.906066228978132, -47.51048810787181 -16.184566831531114, -47.28376645007056 -16.342718045390885 M-47.28376645007056 -16.342718045390885 C-46.89764059114735 -16.57678981019755, -46.51151473222414 -16.81086157500421, -46.214828140541634 -16.99071473040609 M-47.28376645007056 -16.342718045390885 C-46.918663451377746 -16.564045628781844, -46.553560452684934 -16.7853732121728, -46.214828140541634 -16.99071473040609 M-46.214828140541634 -16.99071473040609 C-45.944581614797464 -17.13170216978566, -45.674335089053294 -17.272689609165237, -45.10656878925723 -17.56889292409717 M-46.214828140541634 -16.99071473040609 C-45.99140588638115 -17.10727397729283, -45.76798363222067 -17.22383322417957, -45.10656878925723 -17.56889292409717 M-45.10656878925723 -17.56889292409717 C-44.84045395869684 -17.686694065570283, -44.574339128136444 -17.804495207043395, -43.96354247161265 -18.07487676824742 M-45.10656878925723 -17.56889292409717 C-44.82582038751434 -17.693171913443308, -44.54507198577145 -17.817450902789446, -43.96354247161265 -18.07487676824742 M-43.96354247161265 -18.07487676824742 C-43.68158194572474 -18.1786408481887, -43.399621419836826 -18.28240492812998, -42.79044612792546 -18.506587066708033 M-43.96354247161265 -18.07487676824742 C-43.56108718631759 -18.222984033491876, -43.15863190102254 -18.37109129873633, -42.79044612792546 -18.506587066708033 M-42.79044612792546 -18.506587066708033 C-42.37677245538377 -18.62936324130099, -41.96309878284209 -18.752139415893943, -41.59210026270026 -18.862249829261067 M-42.79044612792546 -18.506587066708033 C-42.50502385256998 -18.591298899821446, -42.21960157721449 -18.676010732934856, -41.59210026270026 -18.862249829261067 M-41.59210026270026 -18.862249829261067 C-41.28006507433106 -18.933469824786435, -40.968029885961876 -19.004689820311807, -40.37342913614161 -19.140403561325773 M-41.59210026270026 -18.862249829261067 C-41.24469096388273 -18.941543734658623, -40.897281665065215 -19.020837640056182, -40.37342913614161 -19.140403561325773 M-40.37342913614161 -19.140403561325773 C-40.085622616182334 -19.186933887499894, -39.79781609622305 -19.23346421367401, -39.13944052931272 -19.3399052695533 M-40.37342913614161 -19.140403561325773 C-40.105347410716064 -19.183744935687745, -39.83726568529052 -19.227086310049717, -39.13944052931272 -19.3399052695533 M-39.13944052931272 -19.3399052695533 C-38.77905860167076 -19.37467088069024, -38.41867667402881 -19.40943649182718, -37.89520516608874 -19.45993515863156 M-39.13944052931272 -19.3399052695533 C-38.74987721696898 -19.37748597377667, -38.36031390462524 -19.41506667800004, -37.89520516608874 -19.45993515863156 M-37.89520516608874 -19.45993515863156 C-37.550429910910026 -19.47099143000082, -37.20565465573131 -19.482047701370075, -36.64583587646485 -19.5 M-37.89520516608874 -19.45993515863156 C-37.4218905228978 -19.475113437987627, -36.948575879706844 -19.4902917173437, -36.64583587646485 -19.5 M-36.64583587646485 -19.5 C-36.64583587646485 -19.5, -36.64583587646485 -19.5, -36.645835876464844 -19.5 M-36.64583587646485 -19.5 C-36.64583587646485 -19.5, -36.645835876464844 -19.5, -36.645835876464844 -19.5" stroke="#000000" stroke-width="1.3" fill="none" stroke-dasharray="0 0" style=""></path></g><g class="label" style="" transform="translate(-43.770835876464844, -12)"><rect></rect><foreignObject width="87.54167175292969" height="24"><div xmlns="http://www.w3.org/1999/xhtml" style="display: table-cell; white-space: nowrap; line-height: 1.5; max-width: 200px; text-align: center;"><span class="nodeLabel"><p>Worker 启动</p></span></div></foreignObject></g></g><g class="node default" id="flowchart-B-1" transform="translate(989.84375, 136)"><rect class="basic label-container" style="" x="-130" y="-39" width="260" height="78"></rect><g class="label" style="" transform="translate(-100, -24)"><rect></rect><foreignObject width="200" height="48"><div xmlns="http://www.w3.org/1999/xhtml" style="display: table; white-space: break-spaces; line-height: 1.5; max-width: 200px; text-align: center; width: 200px;"><span class="nodeLabel"><p>wait_for_work\n等待 kick 信号</p></span></div></foreignObject></g></g><g class="node default" id="flowchart-C-3" transform="translate(902.84375, 312.3385429382324)"><polygon points="63.33854293823242,0 126.67708587646484,-63.33854293823242 63.33854293823242,-126.67708587646484 0,-63.33854293823242" class="label-container" transform="translate(-62.83854293823242, 63.33854293823242)"></polygon><g class="label" style="" transform="translate(-36.33854293823242, -12)"><rect></rect><foreignObject width="72.67708587646484" height="24"><div xmlns="http://www.w3.org/1999/xhtml" style="display: table-cell; white-space: nowrap; line-height: 1.5; max-width: 200px; text-align: center;"><span class="nodeLabel"><p>has_work?</p></span></div></foreignObject></g></g><g class="node default" id="flowchart-D-7" transform="translate(902.84375, 488.67708587646484)"><rect class="basic label-container" style="" x="-130" y="-39" width="260" height="78"></rect><g class="label" style="" transform="translate(-100, -24)"><rect></rect><foreignObject width="200" height="48"><div xmlns="http://www.w3.org/1999/xhtml" style="display: table; white-space: break-spaces; line-height: 1.5; max-width: 200px; text-align: center; width: 200px;"><span class="nodeLabel"><p>harvest_completed_cores\n轮询已完成的 core</p></span></div></foreignObject></g></g><g class="node default" id="flowchart-E-9" transform="translate(202.3854217529297, 628.6770858764648)"><rect class="basic label-container" style="" x="-194.3854217529297" y="-51" width="388.7708435058594" height="102"></rect><g class="label" style="" transform="translate(-164.3854217529297, -36)"><rect></rect><foreignObject width="328.7708435058594" height="72"><div xmlns="http://www.w3.org/1999/xhtml" style="display: table; white-space: break-spaces; line-height: 1.5; max-width: 200px; text-align: center; width: 200px;"><span class="nodeLabel"><p>对每个完成的 core:\ncore_binding.remove\ncomplete_lane / cursor++\nreclassify_task</p></span></div></foreignObject></g></g><g class="node default" id="flowchart-F-11" transform="translate(202.3854217529297, 827.0989608764648)"><polygon points="97.421875,0 194.84375,-97.421875 97.421875,-194.84375 0,-97.421875" class="label-container" transform="translate(-96.921875, 97.421875)"></polygon><g class="label" style="" transform="translate(-70.421875, -12)"><rect></rect><foreignObject width="140.84375" height="24"><div xmlns="http://www.w3.org/1999/xhtml" style="display: table-cell; white-space: nowrap; line-height: 1.5; max-width: 200px; text-align: center;"><span class="nodeLabel"><p>有 terminal submit?</p></span></div></foreignObject></g></g><g class="node default" id="flowchart-G-13" transform="translate(582.4739608764648, 1037.5208358764648)"><rect class="basic label-container" style="" x="-164.5" y="-39" width="329" height="78"></rect><g class="label" style="" transform="translate(-134.5, -24)"><rect></rect><foreignObject width="269" height="48"><div xmlns="http://www.w3.org/1999/xhtml" style="display: table; white-space: break-spaces; line-height: 1.5; max-width: 200px; text-align: center; width: 200px;"><span class="nodeLabel"><p>prepare_read_all\nwaiter.complete\n唤醒等待线程</p></span></div></foreignObject></g></g><g class="node default" id="flowchart-H-15" transform="translate(202.3854217529297, 1165.5208358764648)"><rect class="basic label-container" style="" x="-130" y="-39" width="260" height="78"></rect><g class="label" style="" transform="translate(-100, -24)"><rect></rect><foreignObject width="200" height="48"><div xmlns="http://www.w3.org/1999/xhtml" style="display: table; white-space: break-spaces; line-height: 1.5; max-width: 200px; text-align: center; width: 200px;"><span class="nodeLabel"><p>dispatch_idle_cores\n为空闲 core 选任务</p></span></div></foreignObject></g></g><g class="node default" id="flowchart-I-19" transform="translate(202.3854217529297, 1417.5208358764648)"><polygon points="139,0 278,-139 139,-278 0,-139" class="label-container" transform="translate(-138.5, 139)"></polygon><g class="label" style="" transform="translate(-100, -24)"><rect></rect><foreignObject width="200" height="48"><div xmlns="http://www.w3.org/1999/xhtml" style="display: table; white-space: break-spaces; line-height: 1.5; max-width: 200px; text-align: center; width: 200px;"><span class="nodeLabel"><p>有 running submit\n可继续派发?</p></span></div></foreignObject></g></g><g class="node default" id="flowchart-J-21" transform="translate(373.2213592529297, 1917.5208358764648)"><rect class="basic label-container" style="" x="-181.72396850585938" y="-39" width="363.44793701171875" height="78"></rect><g class="label" style="" transform="translate(-151.72396850585938, -24)"><rect></rect><foreignObject width="303.44793701171875" height="48"><div xmlns="http://www.w3.org/1999/xhtml" style="display: table; white-space: break-spaces; line-height: 1.5; max-width: 200px; text-align: center; width: 200px;"><span class="nodeLabel"><p>prepare_dispatch_from_running\nrunning-before-ready 策略</p></span></div></foreignObject></g></g><g class="node default" id="flowchart-K-23" transform="translate(130.34375762939453, 1717.5208358764648)"><polygon points="87,0 174,-87 87,-174 0,-87" class="label-container" transform="translate(-86.5, 87)"></polygon><g class="label" style="" transform="translate(-60, -12)"><rect></rect><foreignObject width="120" height="24"><div xmlns="http://www.w3.org/1999/xhtml" style="display: table-cell; white-space: nowrap; line-height: 1.5; max-width: 200px; text-align: center;"><span class="nodeLabel"><p>有 ready submit?</p></span></div></foreignObject></g></g><g class="node default" id="flowchart-L-25" transform="translate(780.5859375, 1917.5208358764648)"><rect class="basic label-container" style="" x="-175.640625" y="-39" width="351.28125" height="78"></rect><g class="label" style="" transform="translate(-145.640625, -24)"><rect></rect><foreignObject width="291.28125" height="48"><div xmlns="http://www.w3.org/1999/xhtml" style="display: table; white-space: break-spaces; line-height: 1.5; max-width: 200px; text-align: center; width: 200px;"><span class="nodeLabel"><p>promote_ready_and_prepare_dispatch\n提升到 running</p></span></div></foreignObject></g></g><g class="node default" id="flowchart-M-27" transform="translate(707.4192733764648, 2560.677085876465)"><polygon points="74.15625,0 148.3125,-74.15625 74.15625,-148.3125 0,-74.15625" class="label-container" transform="translate(-73.65625, 74.15625)"></polygon><g class="label" style="" transform="translate(-47.15625, -12)"><rect></rect><foreignObject width="94.3125" height="24"><div xmlns="http://www.w3.org/1999/xhtml" style="display: table-cell; white-space: nowrap; line-height: 1.5; max-width: 200px; text-align: center;"><span class="nodeLabel"><p>还有 inflight?</p></span></div></foreignObject></g></g><g class="node default" id="flowchart-N-29" transform="translate(536.3255233764648, 2045.5208358764648)"><rect class="basic label-container" style="" x="-226.03125" y="-39" width="452.0625" height="78"></rect><g class="label" style="" transform="translate(-196.03125, -24)"><rect></rect><foreignObject width="392.0625" height="48"><div xmlns="http://www.w3.org/1999/xhtml" style="display: table; white-space: break-spaces; line-height: 1.5; max-width: 200px; text-align: center; width: 200px;"><span class="nodeLabel"><p>comfirm_write_all\nsubmit_ioctrl_step\ncore_binding 记录</p></span></div></foreignObject></g></g><g class="node default" id="flowchart-O-33" transform="translate(666.8411483764648, 2273.520835876465)"><polygon points="139,0 278,-139 139,-278 0,-139" class="label-container" transform="translate(-138.5, 139)"></polygon><g class="label" style="" transform="translate(-100, -24)"><rect></rect><foreignObject width="200" height="48"><div xmlns="http://www.w3.org/1999/xhtml" style="display: table; white-space: break-spaces; line-height: 1.5; max-width: 200px; text-align: center; width: 200px;"><span class="nodeLabel"><p>本轮有 harvest\n或 dispatch?</p></span></div></foreignObject></g></g><g class="node default" id="flowchart-P-39" transform="translate(808.4192733764648, 2735.833335876465)"><rect class="basic label-container" style="" x="-106.28125" y="-27" width="212.5625" height="54"></rect><g class="label" style="" transform="translate(-76.28125, -12)"><rect></rect><foreignObject width="152.5625" height="24"><div xmlns="http://www.w3.org/1999/xhtml" style="display: table-cell; white-space: nowrap; line-height: 1.5; max-width: 200px; text-align: center;"><span class="nodeLabel"><p>yield_now\n让出 CPU</p></span></div></foreignObject></g></g></g></g></g></svg>